<svg width="134" height="18" viewBox="0 0 134 18" fill="none" xmlns="http://www.w3.org/2000/svg">
<path d="M11.178 11.74C11.286 11.98 11.454 12.184 11.682 12.352C11.922 12.508 12.042 12.64 12.042 12.748V12.784C12.042 12.928 11.928 13 11.7 13H9.162C8.934 13 8.82 12.928 8.82 12.784V12.748C8.82 12.676 8.862 12.604 8.946 12.532C9.03 12.46 9.114 12.4 9.198 12.352C9.294 12.304 9.372 12.226 9.432 12.118C9.492 12.01 9.492 11.884 9.432 11.74L8.568 9.616H2.736L1.944 11.74C1.884 11.884 1.878 12.01 1.926 12.118C1.986 12.226 2.058 12.304 2.142 12.352C2.238 12.4 2.328 12.46 2.412 12.532C2.508 12.604 2.556 12.676 2.556 12.748V12.784C2.556 12.928 2.43 13 2.178 13H0.468C0.228 13 0.108 12.928 0.108 12.784V12.748C0.108 12.652 0.222 12.526 0.45 12.37C0.69 12.202 0.858 11.992 0.954 11.74L4.95 1.534C5.034 1.33 4.962 1.12 4.734 0.903999C4.506 0.675999 4.392 0.531999 4.392 0.471999V0.417999C4.392 0.285999 4.476 0.219999 4.644 0.219999H5.688C6.084 0.219999 6.366 0.417999 6.534 0.813999L11.178 11.74ZM3.042 8.842H8.262L5.562 2.164L3.042 8.842ZM16.7818 13.18C15.5218 13.18 14.4538 12.748 13.5778 11.884C12.7138 11.008 12.2818 9.922 12.2818 8.626C12.2818 7.306 12.7018 6.238 13.5418 5.422C14.3938 4.606 15.4498 4.192 16.7098 4.18C17.6458 4.168 18.4618 4.408 19.1578 4.9C19.8658 5.38 20.2198 5.884 20.2198 6.412C20.2198 6.844 19.9798 7.054 19.4998 7.042C19.2718 7.03 19.0558 6.91 18.8518 6.682C18.6598 6.442 18.4858 6.184 18.3298 5.908C18.1858 5.62 17.9458 5.356 17.6098 5.116C17.2858 4.876 16.8898 4.756 16.4218 4.756C15.6778 4.756 15.0658 5.062 14.5858 5.674C14.1058 6.274 13.8658 7.024 13.8658 7.924C13.8658 9.172 14.1838 10.174 14.8198 10.93C15.4558 11.674 16.2778 12.046 17.2858 12.046C17.8738 12.046 18.3778 11.89 18.7978 11.578C19.2298 11.254 19.5598 10.846 19.7878 10.354C19.8598 10.21 19.9738 10.156 20.1298 10.192C20.2858 10.228 20.3458 10.33 20.3098 10.498C20.1658 11.23 19.7818 11.86 19.1578 12.388C18.5458 12.916 17.7538 13.18 16.7818 13.18ZM24.7009 13.18C23.9809 13.18 23.4109 12.952 22.9909 12.496C22.5829 12.028 22.3789 11.35 22.3789 10.462V5.08H21.1909C21.0109 5.08 20.9209 4.99 20.9209 4.81V4.63C20.9209 4.45 21.0109 4.36 21.1909 4.36H21.8389C22.6549 4.36 23.1109 3.79 23.2069 2.65C23.2309 2.41 23.3329 2.29 23.5129 2.29H23.6929C23.8849 2.29 23.9809 2.41 23.9809 2.65L23.9989 4.36H26.4829C26.5549 4.36 26.6149 4.39 26.6629 4.45C26.7229 4.498 26.7529 4.558 26.7529 4.63V4.81C26.7529 4.99 26.6629 5.08 26.4829 5.08H23.9989V10.48C23.9989 10.96 24.1009 11.332 24.3049 11.596C24.5089 11.86 24.7849 11.992 25.1329 11.992C25.5169 11.992 25.8229 11.896 26.0509 11.704C26.2909 11.5 26.4289 11.236 26.4649 10.912C26.5249 10.768 26.6269 10.708 26.7709 10.732C26.9269 10.744 27.0049 10.828 27.0049 10.984C27.0049 11.572 26.7889 12.088 26.3569 12.532C25.9369 12.964 25.3849 13.18 24.7009 13.18ZM29.3709 2.65C28.9989 2.65 28.7049 2.548 28.4889 2.344C28.2729 2.14 28.1649 1.87 28.1649 1.534C28.1649 1.198 28.2729 0.927999 28.4889 0.723999C28.7169 0.507999 29.0109 0.399999 29.3709 0.399999C29.7189 0.399999 30.0009 0.507999 30.2169 0.723999C30.4329 0.927999 30.5409 1.198 30.5409 1.534C30.5409 1.87 30.4329 2.14 30.2169 2.344C30.0009 2.548 29.7189 2.65 29.3709 2.65ZM28.3269 13C28.0989 13 27.9849 12.922 27.9849 12.766V12.694C27.9849 12.61 28.0389 12.532 28.1469 12.46C28.2549 12.376 28.3629 12.28 28.4709 12.172C28.5789 12.052 28.6329 11.902 28.6329 11.722V6.358C28.6329 6.082 28.5249 5.842 28.3089 5.638C28.0929 5.434 27.9849 5.302 27.9849 5.242V5.206C27.9849 5.122 28.0749 5.032 28.2549 4.936L29.6409 4.252C29.8329 4.18 29.9709 4.168 30.0549 4.216C30.1509 4.264 30.1989 4.36 30.1989 4.504V11.722C30.1989 11.866 30.2349 11.992 30.3069 12.1C30.3789 12.196 30.4629 12.268 30.5589 12.316C30.6549 12.364 30.7389 12.424 30.8109 12.496C30.8829 12.556 30.9189 12.622 30.9189 12.694V12.766C30.9189 12.922 30.7929 13 30.5409 13H28.3269ZM40.6239 4.36C40.8039 4.36 40.8939 4.426 40.8939 4.558V4.612C40.8939 4.72 40.7619 4.864 40.4979 5.044C40.2339 5.224 40.0599 5.416 39.9759 5.62L37.1319 12.64C37.0359 12.88 36.8799 13 36.6639 13H36.1059C35.8899 13 35.7279 12.88 35.6199 12.64L32.3979 5.62C32.3019 5.416 32.1459 5.224 31.9299 5.044C31.7259 4.864 31.6239 4.72 31.6239 4.612V4.558C31.6239 4.426 31.7139 4.36 31.8939 4.36H34.3959C34.5639 4.36 34.6479 4.432 34.6479 4.576V4.63C34.6479 4.678 34.5459 4.804 34.3419 5.008C34.1379 5.2 34.0779 5.41 34.1619 5.638L36.6999 11.866L39.1659 5.8C39.2379 5.608 39.2439 5.446 39.1839 5.314C39.1359 5.182 39.0639 5.086 38.9679 5.026C38.8719 4.966 38.7759 4.906 38.6799 4.846C38.5839 4.774 38.5359 4.702 38.5359 4.63V4.576C38.5359 4.432 38.6259 4.36 38.8059 4.36H40.6239ZM46.6327 2.65C46.2607 2.65 45.9667 2.548 45.7507 2.344C45.5347 2.14 45.4267 1.87 45.4267 1.534C45.4267 1.198 45.5347 0.927999 45.7507 0.723999C45.9787 0.507999 46.2727 0.399999 46.6327 0.399999C46.9807 0.399999 47.2627 0.507999 47.4787 0.723999C47.6947 0.927999 47.8027 1.198 47.8027 1.534C47.8027 1.87 47.6947 2.14 47.4787 2.344C47.2627 2.548 46.9807 2.65 46.6327 2.65ZM45.5887 13C45.3607 13 45.2467 12.922 45.2467 12.766V12.694C45.2467 12.61 45.3007 12.532 45.4087 12.46C45.5167 12.376 45.6247 12.28 45.7327 12.172C45.8407 12.052 45.8947 11.902 45.8947 11.722V6.358C45.8947 6.082 45.7867 5.842 45.5707 5.638C45.3547 5.434 45.2467 5.302 45.2467 5.242V5.206C45.2467 5.122 45.3367 5.032 45.5167 4.936L46.9027 4.252C47.0947 4.18 47.2327 4.168 47.3167 4.216C47.4127 4.264 47.4607 4.36 47.4607 4.504V11.722C47.4607 11.866 47.4967 11.992 47.5687 12.1C47.6407 12.196 47.7247 12.268 47.8207 12.316C47.9167 12.364 48.0007 12.424 48.0727 12.496C48.1447 12.556 48.1807 12.622 48.1807 12.694V12.766C48.1807 12.922 48.0547 13 47.8027 13H45.5887ZM53.8716 13.18C52.6116 13.18 51.5436 12.748 50.6676 11.884C49.8036 11.008 49.3716 9.922 49.3716 8.626C49.3716 7.306 49.7916 6.238 50.6316 5.422C51.4836 4.606 52.5396 4.192 53.7996 4.18C54.7356 4.168 55.5516 4.408 56.2476 4.9C56.9556 5.38 57.3096 5.884 57.3096 6.412C57.3096 6.844 57.0696 7.054 56.5896 7.042C56.3616 7.03 56.1456 6.91 55.9416 6.682C55.7496 6.442 55.5756 6.184 55.4196 5.908C55.2756 5.62 55.0356 5.356 54.6996 5.116C54.3756 4.876 53.9796 4.756 53.5116 4.756C52.7676 4.756 52.1556 5.062 51.6756 5.674C51.1956 6.274 50.9556 7.024 50.9556 7.924C50.9556 9.172 51.2736 10.174 51.9096 10.93C52.5456 11.674 53.3676 12.046 54.3756 12.046C54.9636 12.046 55.4676 11.89 55.8876 11.578C56.3196 11.254 56.6496 10.846 56.8776 10.354C56.9496 10.21 57.0636 10.156 57.2196 10.192C57.3756 10.228 57.4356 10.33 57.3996 10.498C57.2556 11.23 56.8716 11.86 56.2476 12.388C55.6356 12.916 54.8436 13.18 53.8716 13.18ZM63.1768 13.18C61.7848 13.18 60.6508 12.73 59.7748 11.83C58.9108 10.918 58.4788 9.826 58.4788 8.554C58.4788 7.306 58.8988 6.268 59.7388 5.44C60.5788 4.6 61.6168 4.18 62.8528 4.18C64.1848 4.18 65.2768 4.624 66.1288 5.512C66.9928 6.388 67.4248 7.468 67.4248 8.752C67.4248 10.012 67.0288 11.068 66.2368 11.92C65.4448 12.76 64.4248 13.18 63.1768 13.18ZM63.3928 12.586C64.1008 12.586 64.6828 12.286 65.1388 11.686C65.6068 11.086 65.8408 10.288 65.8408 9.292C65.8408 8.02 65.5408 6.952 64.9408 6.088C64.3408 5.212 63.5848 4.774 62.6728 4.774C61.9048 4.774 61.2808 5.074 60.8008 5.674C60.3208 6.262 60.0808 7.054 60.0808 8.05C60.0808 9.25 60.3928 10.306 61.0168 11.218C61.6408 12.13 62.4328 12.586 63.3928 12.586ZM77.3145 11.704C77.3265 11.896 77.3865 12.052 77.4945 12.172C77.6025 12.292 77.7045 12.394 77.8005 12.478C77.9085 12.55 77.9625 12.628 77.9625 12.712V12.784C77.9625 12.94 77.8365 13.018 77.5845 13.018H75.4425C75.1905 13.018 75.0645 12.94 75.0645 12.784V12.712C75.0645 12.628 75.1725 12.502 75.3885 12.334C75.6165 12.166 75.7245 11.962 75.7125 11.722L75.5325 8.122C75.4845 7.054 75.2625 6.25 74.8665 5.71C74.4825 5.158 73.9665 4.882 73.3185 4.882C72.6585 4.882 72.1185 5.116 71.6985 5.584C71.2785 6.052 71.0685 6.646 71.0685 7.366V11.74C71.0685 11.884 71.1045 12.01 71.1765 12.118C71.2605 12.214 71.3445 12.286 71.4285 12.334C71.5125 12.382 71.5905 12.442 71.6625 12.514C71.7465 12.574 71.7885 12.64 71.7885 12.712V12.784C71.7885 12.94 71.6625 13.018 71.4105 13.018H69.1605C68.9205 13.018 68.8005 12.94 68.8005 12.784V12.712C68.8005 12.616 68.9145 12.49 69.1425 12.334C69.3825 12.178 69.5025 11.98 69.5025 11.74V6.286C69.5025 6.058 69.4365 5.884 69.3045 5.764C69.1845 5.632 69.0585 5.53 68.9265 5.458C68.8065 5.386 68.7465 5.308 68.7465 5.224V5.17C68.7465 5.062 68.8425 4.972 69.0345 4.9L70.3845 4.252C70.5525 4.168 70.6785 4.156 70.7625 4.216C70.8465 4.276 70.8885 4.378 70.8885 4.522V5.836C71.1525 5.332 71.5305 4.93 72.0225 4.63C72.5265 4.33 73.0845 4.18 73.6965 4.18C74.6325 4.18 75.4125 4.51 76.0365 5.17C76.6725 5.83 77.0325 6.826 77.1165 8.158L77.3145 11.704ZM82.6104 13.162C81.5064 13.162 80.6184 12.94 79.9464 12.496C79.2864 12.052 78.9564 11.59 78.9564 11.11C78.9564 10.666 79.1904 10.444 79.6584 10.444C79.8624 10.444 80.0244 10.522 80.1444 10.678C80.2764 10.822 80.3904 11.002 80.4864 11.218C80.5824 11.434 80.6964 11.65 80.8284 11.866C80.9724 12.082 81.1944 12.268 81.4944 12.424C81.7944 12.568 82.1664 12.64 82.6104 12.64C83.2104 12.64 83.7024 12.502 84.0864 12.226C84.4704 11.938 84.6624 11.548 84.6624 11.056C84.6624 10.576 84.4704 10.204 84.0864 9.94C83.7144 9.676 83.2584 9.49 82.7184 9.382C82.1784 9.262 81.6384 9.13 81.0984 8.986C80.5584 8.842 80.0964 8.578 79.7124 8.194C79.3404 7.81 79.1544 7.294 79.1544 6.646C79.1544 5.95 79.4724 5.368 80.1084 4.9C80.7444 4.42 81.5544 4.18 82.5384 4.18C83.5824 4.18 84.4284 4.402 85.0764 4.846C85.7244 5.29 86.0484 5.776 86.0484 6.304C86.0484 6.484 85.9824 6.634 85.8504 6.754C85.7304 6.874 85.5804 6.934 85.4004 6.934C85.1844 6.934 84.9984 6.82 84.8424 6.592C84.6864 6.364 84.5544 6.112 84.4464 5.836C84.3504 5.56 84.1464 5.308 83.8344 5.08C83.5224 4.852 83.1144 4.738 82.6104 4.738C82.0824 4.738 81.6384 4.888 81.2784 5.188C80.9304 5.488 80.7564 5.86 80.7564 6.304C80.7564 6.772 80.9424 7.138 81.3144 7.402C81.6984 7.654 82.1604 7.84 82.7004 7.96C83.2404 8.08 83.7744 8.212 84.3024 8.356C84.8424 8.5 85.2984 8.77 85.6704 9.166C86.0544 9.55 86.2464 10.072 86.2464 10.732C86.2464 11.428 85.9104 12.01 85.2384 12.478C84.5784 12.934 83.7024 13.162 82.6104 13.162ZM96.0818 5.044C97.2698 5.044 98.2658 5.404 99.0698 6.124C99.8738 6.844 100.276 7.768 100.276 8.896C100.276 10.144 99.8558 11.17 99.0158 11.974C98.1758 12.778 97.0658 13.18 95.6858 13.18C94.3298 13.18 93.2858 12.94 92.5538 12.46C91.8218 11.968 91.4558 11.452 91.4558 10.912C91.4558 10.648 91.5338 10.45 91.6898 10.318C91.8458 10.186 92.0378 10.12 92.2658 10.12C92.4458 10.12 92.6018 10.198 92.7338 10.354C92.8778 10.51 93.0158 10.702 93.1478 10.93C93.2798 11.158 93.4358 11.386 93.6158 11.614C93.8078 11.83 94.0778 12.016 94.4258 12.172C94.7858 12.328 95.2118 12.406 95.7038 12.406C96.5678 12.406 97.2758 12.112 97.8278 11.524C98.3798 10.924 98.6558 10.144 98.6558 9.184C98.6558 8.164 98.3858 7.348 97.8458 6.736C97.3178 6.124 96.5858 5.818 95.6498 5.818C94.8218 5.818 93.9338 6.13 92.9858 6.754C92.7938 6.898 92.5838 6.916 92.3558 6.808C92.1398 6.688 92.0438 6.508 92.0678 6.268L92.8598 0.454C92.8598 0.297999 92.9558 0.219999 93.1478 0.219999H99.6458C99.8018 0.219999 99.8798 0.303999 99.8798 0.471999V1.264C99.8798 1.432 99.8018 1.516 99.6458 1.516H93.6698L92.8778 5.998C93.7658 5.362 94.8338 5.044 96.0818 5.044ZM110.384 10.264C110.48 10.264 110.552 10.294 110.6 10.354C110.648 10.414 110.66 10.498 110.636 10.606L110.132 12.622C110.048 12.874 109.904 13 109.7 13H101.888C101.66 13 101.546 12.892 101.546 12.676V12.532C101.546 11.968 101.708 11.398 102.032 10.822C102.368 10.246 102.782 9.73 103.274 9.274C103.778 8.806 104.318 8.32 104.894 7.816C105.482 7.3 106.022 6.82 106.514 6.376C107.018 5.932 107.432 5.44 107.756 4.9C108.092 4.348 108.26 3.808 108.26 3.28C108.26 2.524 108.026 1.918 107.558 1.462C107.102 1.006 106.58 0.778 105.992 0.778C105.416 0.778 104.93 0.94 104.534 1.264C104.15 1.576 103.886 1.924 103.742 2.308C103.598 2.68 103.424 3.028 103.22 3.352C103.016 3.664 102.788 3.82 102.536 3.82C102.284 3.82 102.08 3.748 101.924 3.604C101.768 3.46 101.69 3.262 101.69 3.01C101.69 2.338 102.086 1.678 102.878 1.03C103.67 0.37 104.678 0.0399995 105.902 0.0399995C107.078 0.0399995 108.032 0.334 108.764 0.922C109.508 1.51 109.88 2.338 109.88 3.406C109.88 4.102 109.658 4.774 109.214 5.422C108.77 6.07 108.218 6.646 107.558 7.15C106.91 7.654 106.256 8.146 105.596 8.626C104.936 9.106 104.348 9.622 103.832 10.174C103.316 10.726 103.01 11.278 102.914 11.83H108.656C108.968 11.83 109.22 11.704 109.412 11.452C109.616 11.188 109.778 10.924 109.898 10.66C110.03 10.396 110.15 10.264 110.258 10.264H110.384ZM120.733 4.18C121.873 4.18 122.845 4.588 123.649 5.404C124.465 6.208 124.873 7.258 124.873 8.554C124.873 9.874 124.471 10.978 123.667 11.866C122.875 12.742 121.903 13.18 120.751 13.18C119.647 13.18 118.759 12.766 118.087 11.938V15.808C118.087 16 118.147 16.156 118.267 16.276C118.387 16.396 118.501 16.492 118.609 16.564C118.729 16.648 118.789 16.732 118.789 16.816V16.87C118.789 17.026 118.669 17.104 118.429 17.104H116.215C115.963 17.104 115.837 17.026 115.837 16.87V16.816C115.837 16.744 115.873 16.672 115.945 16.6C116.017 16.54 116.089 16.486 116.161 16.438C116.245 16.39 116.323 16.312 116.395 16.204C116.467 16.096 116.503 15.964 116.503 15.808V6.268C116.503 6.04 116.383 5.842 116.143 5.674C115.903 5.494 115.783 5.356 115.783 5.26V5.206C115.783 5.062 115.879 4.954 116.071 4.882L117.367 4.252C117.703 4.096 117.871 4.18 117.871 4.504L117.853 5.692C118.129 5.224 118.519 4.858 119.023 4.594C119.539 4.318 120.109 4.18 120.733 4.18ZM120.535 12.604C121.363 12.604 122.023 12.28 122.515 11.632C123.019 10.972 123.271 10.09 123.271 8.986C123.271 7.738 123.001 6.724 122.461 5.944C121.921 5.152 121.213 4.756 120.337 4.756C119.785 4.756 119.287 4.954 118.843 5.35C118.411 5.734 118.159 6.202 118.087 6.754V9.832C118.087 10.552 118.333 11.194 118.825 11.758C119.329 12.322 119.899 12.604 120.535 12.604ZM132.987 11.668C133.107 11.824 133.257 11.974 133.437 12.118C133.617 12.25 133.749 12.364 133.833 12.46C133.929 12.544 133.977 12.634 133.977 12.73V12.784C133.977 12.928 133.887 13 133.707 13H131.187C131.007 13 130.917 12.922 130.917 12.766V12.73C130.917 12.658 130.983 12.574 131.115 12.478C131.247 12.37 131.331 12.274 131.367 12.19C131.415 12.094 131.355 11.914 131.187 11.65L129.333 9.31L127.335 11.686C127.191 11.854 127.113 12.004 127.101 12.136C127.101 12.256 127.143 12.34 127.227 12.388C127.311 12.436 127.395 12.49 127.479 12.55C127.563 12.61 127.605 12.67 127.605 12.73V12.766C127.605 12.922 127.509 13 127.317 13H125.373C125.193 13 125.103 12.928 125.103 12.784V12.73C125.103 12.646 125.151 12.568 125.247 12.496C125.355 12.424 125.517 12.316 125.733 12.172C125.949 12.016 126.147 11.836 126.327 11.632L128.847 8.698L126.507 5.728C126.339 5.512 126.159 5.338 125.967 5.206C125.787 5.062 125.655 4.96 125.571 4.9C125.487 4.828 125.445 4.738 125.445 4.63V4.576C125.445 4.432 125.529 4.36 125.697 4.36H128.163C128.343 4.36 128.433 4.432 128.433 4.576V4.63C128.433 4.714 128.379 4.822 128.271 4.954C128.175 5.074 128.115 5.182 128.091 5.278C128.067 5.362 128.127 5.518 128.271 5.746L130.071 7.996L132.051 5.746C132.207 5.506 132.267 5.338 132.231 5.242C132.195 5.146 132.111 5.038 131.979 4.918C131.847 4.798 131.781 4.702 131.781 4.63V4.576C131.781 4.432 131.871 4.36 132.051 4.36H133.653C133.833 4.36 133.923 4.432 133.923 4.576V4.63C133.923 4.726 133.887 4.816 133.815 4.9C133.755 4.972 133.635 5.086 133.455 5.242C133.287 5.386 133.125 5.548 132.969 5.728L130.521 8.572L132.987 11.668Z" fill="#929699"/>
</svg>
