<svg width="137" height="18" viewBox="0 0 137 18" fill="none" xmlns="http://www.w3.org/2000/svg">
<path d="M11.178 11.74C11.286 11.98 11.454 12.184 11.682 12.352C11.922 12.508 12.042 12.64 12.042 12.748V12.784C12.042 12.928 11.928 13 11.7 13H9.162C8.934 13 8.82 12.928 8.82 12.784V12.748C8.82 12.676 8.862 12.604 8.946 12.532C9.03 12.46 9.114 12.4 9.198 12.352C9.294 12.304 9.372 12.226 9.432 12.118C9.492 12.01 9.492 11.884 9.432 11.74L8.568 9.616H2.736L1.944 11.74C1.884 11.884 1.878 12.01 1.926 12.118C1.986 12.226 2.058 12.304 2.142 12.352C2.238 12.4 2.328 12.46 2.412 12.532C2.508 12.604 2.556 12.676 2.556 12.748V12.784C2.556 12.928 2.43 13 2.178 13H0.468C0.228 13 0.108 12.928 0.108 12.784V12.748C0.108 12.652 0.222 12.526 0.45 12.37C0.69 12.202 0.858 11.992 0.954 11.74L4.95 1.534C5.034 1.33 4.962 1.12 4.734 0.903999C4.506 0.675999 4.392 0.531999 4.392 0.471999V0.417999C4.392 0.285999 4.476 0.219999 4.644 0.219999H5.688C6.084 0.219999 6.366 0.417999 6.534 0.813999L11.178 11.74ZM3.042 8.842H8.262L5.562 2.164L3.042 8.842ZM16.7818 13.18C15.5218 13.18 14.4538 12.748 13.5778 11.884C12.7138 11.008 12.2818 9.922 12.2818 8.626C12.2818 7.306 12.7018 6.238 13.5418 5.422C14.3938 4.606 15.4498 4.192 16.7098 4.18C17.6458 4.168 18.4618 4.408 19.1578 4.9C19.8658 5.38 20.2198 5.884 20.2198 6.412C20.2198 6.844 19.9798 7.054 19.4998 7.042C19.2718 7.03 19.0558 6.91 18.8518 6.682C18.6598 6.442 18.4858 6.184 18.3298 5.908C18.1858 5.62 17.9458 5.356 17.6098 5.116C17.2858 4.876 16.8898 4.756 16.4218 4.756C15.6778 4.756 15.0658 5.062 14.5858 5.674C14.1058 6.274 13.8658 7.024 13.8658 7.924C13.8658 9.172 14.1838 10.174 14.8198 10.93C15.4558 11.674 16.2778 12.046 17.2858 12.046C17.8738 12.046 18.3778 11.89 18.7978 11.578C19.2298 11.254 19.5598 10.846 19.7878 10.354C19.8598 10.21 19.9738 10.156 20.1298 10.192C20.2858 10.228 20.3458 10.33 20.3098 10.498C20.1658 11.23 19.7818 11.86 19.1578 12.388C18.5458 12.916 17.7538 13.18 16.7818 13.18ZM24.7009 13.18C23.9809 13.18 23.4109 12.952 22.9909 12.496C22.5829 12.028 22.3789 11.35 22.3789 10.462V5.08H21.1909C21.0109 5.08 20.9209 4.99 20.9209 4.81V4.63C20.9209 4.45 21.0109 4.36 21.1909 4.36H21.8389C22.6549 4.36 23.1109 3.79 23.2069 2.65C23.2309 2.41 23.3329 2.29 23.5129 2.29H23.6929C23.8849 2.29 23.9809 2.41 23.9809 2.65L23.9989 4.36H26.4829C26.5549 4.36 26.6149 4.39 26.6629 4.45C26.7229 4.498 26.7529 4.558 26.7529 4.63V4.81C26.7529 4.99 26.6629 5.08 26.4829 5.08H23.9989V10.48C23.9989 10.96 24.1009 11.332 24.3049 11.596C24.5089 11.86 24.7849 11.992 25.1329 11.992C25.5169 11.992 25.8229 11.896 26.0509 11.704C26.2909 11.5 26.4289 11.236 26.4649 10.912C26.5249 10.768 26.6269 10.708 26.7709 10.732C26.9269 10.744 27.0049 10.828 27.0049 10.984C27.0049 11.572 26.7889 12.088 26.3569 12.532C25.9369 12.964 25.3849 13.18 24.7009 13.18ZM29.3709 2.65C28.9989 2.65 28.7049 2.548 28.4889 2.344C28.2729 2.14 28.1649 1.87 28.1649 1.534C28.1649 1.198 28.2729 0.927999 28.4889 0.723999C28.7169 0.507999 29.0109 0.399999 29.3709 0.399999C29.7189 0.399999 30.0009 0.507999 30.2169 0.723999C30.4329 0.927999 30.5409 1.198 30.5409 1.534C30.5409 1.87 30.4329 2.14 30.2169 2.344C30.0009 2.548 29.7189 2.65 29.3709 2.65ZM28.3269 13C28.0989 13 27.9849 12.922 27.9849 12.766V12.694C27.9849 12.61 28.0389 12.532 28.1469 12.46C28.2549 12.376 28.3629 12.28 28.4709 12.172C28.5789 12.052 28.6329 11.902 28.6329 11.722V6.358C28.6329 6.082 28.5249 5.842 28.3089 5.638C28.0929 5.434 27.9849 5.302 27.9849 5.242V5.206C27.9849 5.122 28.0749 5.032 28.2549 4.936L29.6409 4.252C29.8329 4.18 29.9709 4.168 30.0549 4.216C30.1509 4.264 30.1989 4.36 30.1989 4.504V11.722C30.1989 11.866 30.2349 11.992 30.3069 12.1C30.3789 12.196 30.4629 12.268 30.5589 12.316C30.6549 12.364 30.7389 12.424 30.8109 12.496C30.8829 12.556 30.9189 12.622 30.9189 12.694V12.766C30.9189 12.922 30.7929 13 30.5409 13H28.3269ZM40.6239 4.36C40.8039 4.36 40.8939 4.426 40.8939 4.558V4.612C40.8939 4.72 40.7619 4.864 40.4979 5.044C40.2339 5.224 40.0599 5.416 39.9759 5.62L37.1319 12.64C37.0359 12.88 36.8799 13 36.6639 13H36.1059C35.8899 13 35.7279 12.88 35.6199 12.64L32.3979 5.62C32.3019 5.416 32.1459 5.224 31.9299 5.044C31.7259 4.864 31.6239 4.72 31.6239 4.612V4.558C31.6239 4.426 31.7139 4.36 31.8939 4.36H34.3959C34.5639 4.36 34.6479 4.432 34.6479 4.576V4.63C34.6479 4.678 34.5459 4.804 34.3419 5.008C34.1379 5.2 34.0779 5.41 34.1619 5.638L36.6999 11.866L39.1659 5.8C39.2379 5.608 39.2439 5.446 39.1839 5.314C39.1359 5.182 39.0639 5.086 38.9679 5.026C38.8719 4.966 38.7759 4.906 38.6799 4.846C38.5839 4.774 38.5359 4.702 38.5359 4.63V4.576C38.5359 4.432 38.6259 4.36 38.8059 4.36H40.6239ZM46.6327 2.65C46.2607 2.65 45.9667 2.548 45.7507 2.344C45.5347 2.14 45.4267 1.87 45.4267 1.534C45.4267 1.198 45.5347 0.927999 45.7507 0.723999C45.9787 0.507999 46.2727 0.399999 46.6327 0.399999C46.9807 0.399999 47.2627 0.507999 47.4787 0.723999C47.6947 0.927999 47.8027 1.198 47.8027 1.534C47.8027 1.87 47.6947 2.14 47.4787 2.344C47.2627 2.548 46.9807 2.65 46.6327 2.65ZM45.5887 13C45.3607 13 45.2467 12.922 45.2467 12.766V12.694C45.2467 12.61 45.3007 12.532 45.4087 12.46C45.5167 12.376 45.6247 12.28 45.7327 12.172C45.8407 12.052 45.8947 11.902 45.8947 11.722V6.358C45.8947 6.082 45.7867 5.842 45.5707 5.638C45.3547 5.434 45.2467 5.302 45.2467 5.242V5.206C45.2467 5.122 45.3367 5.032 45.5167 4.936L46.9027 4.252C47.0947 4.18 47.2327 4.168 47.3167 4.216C47.4127 4.264 47.4607 4.36 47.4607 4.504V11.722C47.4607 11.866 47.4967 11.992 47.5687 12.1C47.6407 12.196 47.7247 12.268 47.8207 12.316C47.9167 12.364 48.0007 12.424 48.0727 12.496C48.1447 12.556 48.1807 12.622 48.1807 12.694V12.766C48.1807 12.922 48.0547 13 47.8027 13H45.5887ZM53.8716 13.18C52.6116 13.18 51.5436 12.748 50.6676 11.884C49.8036 11.008 49.3716 9.922 49.3716 8.626C49.3716 7.306 49.7916 6.238 50.6316 5.422C51.4836 4.606 52.5396 4.192 53.7996 4.18C54.7356 4.168 55.5516 4.408 56.2476 4.9C56.9556 5.38 57.3096 5.884 57.3096 6.412C57.3096 6.844 57.0696 7.054 56.5896 7.042C56.3616 7.03 56.1456 6.91 55.9416 6.682C55.7496 6.442 55.5756 6.184 55.4196 5.908C55.2756 5.62 55.0356 5.356 54.6996 5.116C54.3756 4.876 53.9796 4.756 53.5116 4.756C52.7676 4.756 52.1556 5.062 51.6756 5.674C51.1956 6.274 50.9556 7.024 50.9556 7.924C50.9556 9.172 51.2736 10.174 51.9096 10.93C52.5456 11.674 53.3676 12.046 54.3756 12.046C54.9636 12.046 55.4676 11.89 55.8876 11.578C56.3196 11.254 56.6496 10.846 56.8776 10.354C56.9496 10.21 57.0636 10.156 57.2196 10.192C57.3756 10.228 57.4356 10.33 57.3996 10.498C57.2556 11.23 56.8716 11.86 56.2476 12.388C55.6356 12.916 54.8436 13.18 53.8716 13.18ZM63.1768 13.18C61.7848 13.18 60.6508 12.73 59.7748 11.83C58.9108 10.918 58.4788 9.826 58.4788 8.554C58.4788 7.306 58.8988 6.268 59.7388 5.44C60.5788 4.6 61.6168 4.18 62.8528 4.18C64.1848 4.18 65.2768 4.624 66.1288 5.512C66.9928 6.388 67.4248 7.468 67.4248 8.752C67.4248 10.012 67.0288 11.068 66.2368 11.92C65.4448 12.76 64.4248 13.18 63.1768 13.18ZM63.3928 12.586C64.1008 12.586 64.6828 12.286 65.1388 11.686C65.6068 11.086 65.8408 10.288 65.8408 9.292C65.8408 8.02 65.5408 6.952 64.9408 6.088C64.3408 5.212 63.5848 4.774 62.6728 4.774C61.9048 4.774 61.2808 5.074 60.8008 5.674C60.3208 6.262 60.0808 7.054 60.0808 8.05C60.0808 9.25 60.3928 10.306 61.0168 11.218C61.6408 12.13 62.4328 12.586 63.3928 12.586ZM77.3145 11.704C77.3265 11.896 77.3865 12.052 77.4945 12.172C77.6025 12.292 77.7045 12.394 77.8005 12.478C77.9085 12.55 77.9625 12.628 77.9625 12.712V12.784C77.9625 12.94 77.8365 13.018 77.5845 13.018H75.4425C75.1905 13.018 75.0645 12.94 75.0645 12.784V12.712C75.0645 12.628 75.1725 12.502 75.3885 12.334C75.6165 12.166 75.7245 11.962 75.7125 11.722L75.5325 8.122C75.4845 7.054 75.2625 6.25 74.8665 5.71C74.4825 5.158 73.9665 4.882 73.3185 4.882C72.6585 4.882 72.1185 5.116 71.6985 5.584C71.2785 6.052 71.0685 6.646 71.0685 7.366V11.74C71.0685 11.884 71.1045 12.01 71.1765 12.118C71.2605 12.214 71.3445 12.286 71.4285 12.334C71.5125 12.382 71.5905 12.442 71.6625 12.514C71.7465 12.574 71.7885 12.64 71.7885 12.712V12.784C71.7885 12.94 71.6625 13.018 71.4105 13.018H69.1605C68.9205 13.018 68.8005 12.94 68.8005 12.784V12.712C68.8005 12.616 68.9145 12.49 69.1425 12.334C69.3825 12.178 69.5025 11.98 69.5025 11.74V6.286C69.5025 6.058 69.4365 5.884 69.3045 5.764C69.1845 5.632 69.0585 5.53 68.9265 5.458C68.8065 5.386 68.7465 5.308 68.7465 5.224V5.17C68.7465 5.062 68.8425 4.972 69.0345 4.9L70.3845 4.252C70.5525 4.168 70.6785 4.156 70.7625 4.216C70.8465 4.276 70.8885 4.378 70.8885 4.522V5.836C71.1525 5.332 71.5305 4.93 72.0225 4.63C72.5265 4.33 73.0845 4.18 73.6965 4.18C74.6325 4.18 75.4125 4.51 76.0365 5.17C76.6725 5.83 77.0325 6.826 77.1165 8.158L77.3145 11.704ZM82.6104 13.162C81.5064 13.162 80.6184 12.94 79.9464 12.496C79.2864 12.052 78.9564 11.59 78.9564 11.11C78.9564 10.666 79.1904 10.444 79.6584 10.444C79.8624 10.444 80.0244 10.522 80.1444 10.678C80.2764 10.822 80.3904 11.002 80.4864 11.218C80.5824 11.434 80.6964 11.65 80.8284 11.866C80.9724 12.082 81.1944 12.268 81.4944 12.424C81.7944 12.568 82.1664 12.64 82.6104 12.64C83.2104 12.64 83.7024 12.502 84.0864 12.226C84.4704 11.938 84.6624 11.548 84.6624 11.056C84.6624 10.576 84.4704 10.204 84.0864 9.94C83.7144 9.676 83.2584 9.49 82.7184 9.382C82.1784 9.262 81.6384 9.13 81.0984 8.986C80.5584 8.842 80.0964 8.578 79.7124 8.194C79.3404 7.81 79.1544 7.294 79.1544 6.646C79.1544 5.95 79.4724 5.368 80.1084 4.9C80.7444 4.42 81.5544 4.18 82.5384 4.18C83.5824 4.18 84.4284 4.402 85.0764 4.846C85.7244 5.29 86.0484 5.776 86.0484 6.304C86.0484 6.484 85.9824 6.634 85.8504 6.754C85.7304 6.874 85.5804 6.934 85.4004 6.934C85.1844 6.934 84.9984 6.82 84.8424 6.592C84.6864 6.364 84.5544 6.112 84.4464 5.836C84.3504 5.56 84.1464 5.308 83.8344 5.08C83.5224 4.852 83.1144 4.738 82.6104 4.738C82.0824 4.738 81.6384 4.888 81.2784 5.188C80.9304 5.488 80.7564 5.86 80.7564 6.304C80.7564 6.772 80.9424 7.138 81.3144 7.402C81.6984 7.654 82.1604 7.84 82.7004 7.96C83.2404 8.08 83.7744 8.212 84.3024 8.356C84.8424 8.5 85.2984 8.77 85.6704 9.166C86.0544 9.55 86.2464 10.072 86.2464 10.732C86.2464 11.428 85.9104 12.01 85.2384 12.478C84.5784 12.934 83.7024 13.162 82.6104 13.162ZM97.8458 6.214C98.3138 6.418 98.7038 6.61 99.0158 6.79C99.3398 6.958 99.6578 7.18 99.9698 7.456C100.294 7.732 100.534 8.056 100.69 8.428C100.846 8.788 100.924 9.202 100.924 9.67C100.924 10.762 100.492 11.62 99.6278 12.244C98.7638 12.868 97.6598 13.18 96.3158 13.18C94.8278 13.18 93.6578 12.862 92.8058 12.226C91.9538 11.59 91.5278 10.822 91.5278 9.922C91.5278 8.41 92.6258 7.24 94.8218 6.412C93.9698 6.016 93.3098 5.584 92.8418 5.116C92.3738 4.636 92.1398 4.012 92.1398 3.244C92.1398 2.296 92.5178 1.528 93.2738 0.94C94.0418 0.351999 95.0618 0.0579993 96.3338 0.0579993C97.5818 0.0579993 98.5658 0.357999 99.2858 0.957999C100.006 1.558 100.366 2.29 100.366 3.154C100.366 4.498 99.5258 5.518 97.8458 6.214ZM93.6518 2.848C93.6518 3.58 93.9098 4.156 94.4258 4.576C94.9538 4.984 95.7278 5.386 96.7478 5.782C97.3238 5.506 97.8398 5.128 98.2958 4.648C98.7518 4.168 98.9798 3.598 98.9798 2.938C98.9798 2.338 98.7218 1.822 98.2058 1.39C97.7018 0.957999 97.0538 0.741999 96.2618 0.741999C95.4938 0.741999 94.8638 0.945999 94.3718 1.354C93.8918 1.75 93.6518 2.248 93.6518 2.848ZM96.4778 12.442C97.3298 12.442 98.0318 12.226 98.5838 11.794C99.1358 11.35 99.4118 10.786 99.4118 10.102C99.4118 9.67 99.3278 9.292 99.1598 8.968C99.0038 8.644 98.7098 8.344 98.2778 8.068C97.8578 7.78 97.5218 7.576 97.2698 7.456C97.0298 7.336 96.5858 7.144 95.9378 6.88C95.8058 6.82 95.7098 6.778 95.6498 6.754C94.9298 7.054 94.3058 7.486 93.7778 8.05C93.2618 8.602 93.0038 9.232 93.0038 9.94C93.0038 10.684 93.3218 11.29 93.9578 11.758C94.6058 12.214 95.4458 12.442 96.4778 12.442ZM107.667 13.18C106.131 13.18 104.871 12.58 103.887 11.38C102.903 10.168 102.411 8.554 102.411 6.538C102.411 4.522 102.861 2.938 103.761 1.786C104.673 0.622 105.933 0.0399995 107.541 0.0399995C109.029 0.0399995 110.259 0.651999 111.231 1.876C112.203 3.1 112.689 4.684 112.689 6.628C112.689 8.644 112.221 10.24 111.285 11.416C110.349 12.592 109.143 13.18 107.667 13.18ZM107.901 12.46C108.837 12.46 109.599 12.004 110.187 11.092C110.787 10.168 111.087 8.92 111.087 7.348C111.087 5.512 110.721 3.958 109.989 2.686C109.269 1.414 108.357 0.778 107.253 0.778C106.293 0.778 105.513 1.24 104.913 2.164C104.313 3.088 104.013 4.348 104.013 5.944C104.013 7.816 104.373 9.37 105.093 10.606C105.825 11.842 106.761 12.46 107.901 12.46ZM123.036 4.18C124.176 4.18 125.148 4.588 125.952 5.404C126.768 6.208 127.176 7.258 127.176 8.554C127.176 9.874 126.774 10.978 125.97 11.866C125.178 12.742 124.206 13.18 123.054 13.18C121.95 13.18 121.062 12.766 120.39 11.938V15.808C120.39 16 120.45 16.156 120.57 16.276C120.69 16.396 120.804 16.492 120.912 16.564C121.032 16.648 121.092 16.732 121.092 16.816V16.87C121.092 17.026 120.972 17.104 120.732 17.104H118.518C118.266 17.104 118.14 17.026 118.14 16.87V16.816C118.14 16.744 118.176 16.672 118.248 16.6C118.32 16.54 118.392 16.486 118.464 16.438C118.548 16.39 118.626 16.312 118.698 16.204C118.77 16.096 118.806 15.964 118.806 15.808V6.268C118.806 6.04 118.686 5.842 118.446 5.674C118.206 5.494 118.086 5.356 118.086 5.26V5.206C118.086 5.062 118.182 4.954 118.374 4.882L119.67 4.252C120.006 4.096 120.174 4.18 120.174 4.504L120.156 5.692C120.432 5.224 120.822 4.858 121.326 4.594C121.842 4.318 122.412 4.18 123.036 4.18ZM122.838 12.604C123.666 12.604 124.326 12.28 124.818 11.632C125.322 10.972 125.574 10.09 125.574 8.986C125.574 7.738 125.304 6.724 124.764 5.944C124.224 5.152 123.516 4.756 122.64 4.756C122.088 4.756 121.59 4.954 121.146 5.35C120.714 5.734 120.462 6.202 120.39 6.754V9.832C120.39 10.552 120.636 11.194 121.128 11.758C121.632 12.322 122.202 12.604 122.838 12.604ZM135.29 11.668C135.41 11.824 135.56 11.974 135.74 12.118C135.92 12.25 136.052 12.364 136.136 12.46C136.232 12.544 136.28 12.634 136.28 12.73V12.784C136.28 12.928 136.19 13 136.01 13H133.49C133.31 13 133.22 12.922 133.22 12.766V12.73C133.22 12.658 133.286 12.574 133.418 12.478C133.55 12.37 133.634 12.274 133.67 12.19C133.718 12.094 133.658 11.914 133.49 11.65L131.636 9.31L129.638 11.686C129.494 11.854 129.416 12.004 129.404 12.136C129.404 12.256 129.446 12.34 129.53 12.388C129.614 12.436 129.698 12.49 129.782 12.55C129.866 12.61 129.908 12.67 129.908 12.73V12.766C129.908 12.922 129.812 13 129.62 13H127.676C127.496 13 127.406 12.928 127.406 12.784V12.73C127.406 12.646 127.454 12.568 127.55 12.496C127.658 12.424 127.82 12.316 128.036 12.172C128.252 12.016 128.45 11.836 128.63 11.632L131.15 8.698L128.81 5.728C128.642 5.512 128.462 5.338 128.27 5.206C128.09 5.062 127.958 4.96 127.874 4.9C127.79 4.828 127.748 4.738 127.748 4.63V4.576C127.748 4.432 127.832 4.36 128 4.36H130.466C130.646 4.36 130.736 4.432 130.736 4.576V4.63C130.736 4.714 130.682 4.822 130.574 4.954C130.478 5.074 130.418 5.182 130.394 5.278C130.37 5.362 130.43 5.518 130.574 5.746L132.374 7.996L134.354 5.746C134.51 5.506 134.57 5.338 134.534 5.242C134.498 5.146 134.414 5.038 134.282 4.918C134.15 4.798 134.084 4.702 134.084 4.63V4.576C134.084 4.432 134.174 4.36 134.354 4.36H135.956C136.136 4.36 136.226 4.432 136.226 4.576V4.63C136.226 4.726 136.19 4.816 136.118 4.9C136.058 4.972 135.938 5.086 135.758 5.242C135.59 5.386 135.428 5.548 135.272 5.728L132.824 8.572L135.29 11.668Z" fill="#929699"/>
</svg>
