<svg width="41" height="14" viewBox="0 0 41 14" fill="none" xmlns="http://www.w3.org/2000/svg">
<path d="M11.178 11.74C11.286 11.98 11.454 12.184 11.682 12.352C11.922 12.508 12.042 12.64 12.042 12.748V12.784C12.042 12.928 11.928 13 11.7 13H9.162C8.934 13 8.82 12.928 8.82 12.784V12.748C8.82 12.676 8.862 12.604 8.946 12.532C9.03 12.46 9.114 12.4 9.198 12.352C9.294 12.304 9.372 12.226 9.432 12.118C9.492 12.01 9.492 11.884 9.432 11.74L8.568 9.616H2.736L1.944 11.74C1.884 11.884 1.878 12.01 1.926 12.118C1.986 12.226 2.058 12.304 2.142 12.352C2.238 12.4 2.328 12.46 2.412 12.532C2.508 12.604 2.556 12.676 2.556 12.748V12.784C2.556 12.928 2.43 13 2.178 13H0.468C0.228 13 0.108 12.928 0.108 12.784V12.748C0.108 12.652 0.222 12.526 0.45 12.37C0.69 12.202 0.858 11.992 0.954 11.74L4.95 1.534C5.034 1.33 4.962 1.12 4.734 0.903999C4.506 0.675999 4.392 0.531999 4.392 0.471999V0.417999C4.392 0.285999 4.476 0.219999 4.644 0.219999H5.688C6.084 0.219999 6.366 0.417999 6.534 0.813999L11.178 11.74ZM3.042 8.842H8.262L5.562 2.164L3.042 8.842ZM16.7818 13.18C15.5218 13.18 14.4538 12.748 13.5778 11.884C12.7138 11.008 12.2818 9.922 12.2818 8.626C12.2818 7.306 12.7018 6.238 13.5418 5.422C14.3938 4.606 15.4498 4.192 16.7098 4.18C17.6458 4.168 18.4618 4.408 19.1578 4.9C19.8658 5.38 20.2198 5.884 20.2198 6.412C20.2198 6.844 19.9798 7.054 19.4998 7.042C19.2718 7.03 19.0558 6.91 18.8518 6.682C18.6598 6.442 18.4858 6.184 18.3298 5.908C18.1858 5.62 17.9458 5.356 17.6098 5.116C17.2858 4.876 16.8898 4.756 16.4218 4.756C15.6778 4.756 15.0658 5.062 14.5858 5.674C14.1058 6.274 13.8658 7.024 13.8658 7.924C13.8658 9.172 14.1838 10.174 14.8198 10.93C15.4558 11.674 16.2778 12.046 17.2858 12.046C17.8738 12.046 18.3778 11.89 18.7978 11.578C19.2298 11.254 19.5598 10.846 19.7878 10.354C19.8598 10.21 19.9738 10.156 20.1298 10.192C20.2858 10.228 20.3458 10.33 20.3098 10.498C20.1658 11.23 19.7818 11.86 19.1578 12.388C18.5458 12.916 17.7538 13.18 16.7818 13.18ZM24.7009 13.18C23.9809 13.18 23.4109 12.952 22.9909 12.496C22.5829 12.028 22.3789 11.35 22.3789 10.462V5.08H21.1909C21.0109 5.08 20.9209 4.99 20.9209 4.81V4.63C20.9209 4.45 21.0109 4.36 21.1909 4.36H21.8389C22.6549 4.36 23.1109 3.79 23.2069 2.65C23.2309 2.41 23.3329 2.29 23.5129 2.29H23.6929C23.8849 2.29 23.9809 2.41 23.9809 2.65L23.9989 4.36H26.4829C26.5549 4.36 26.6149 4.39 26.6629 4.45C26.7229 4.498 26.7529 4.558 26.7529 4.63V4.81C26.7529 4.99 26.6629 5.08 26.4829 5.08H23.9989V10.48C23.9989 10.96 24.1009 11.332 24.3049 11.596C24.5089 11.86 24.7849 11.992 25.1329 11.992C25.5169 11.992 25.8229 11.896 26.0509 11.704C26.2909 11.5 26.4289 11.236 26.4649 10.912C26.5249 10.768 26.6269 10.708 26.7709 10.732C26.9269 10.744 27.0049 10.828 27.0049 10.984C27.0049 11.572 26.7889 12.088 26.3569 12.532C25.9369 12.964 25.3849 13.18 24.7009 13.18ZM29.3709 2.65C28.9989 2.65 28.7049 2.548 28.4889 2.344C28.2729 2.14 28.1649 1.87 28.1649 1.534C28.1649 1.198 28.2729 0.927999 28.4889 0.723999C28.7169 0.507999 29.0109 0.399999 29.3709 0.399999C29.7189 0.399999 30.0009 0.507999 30.2169 0.723999C30.4329 0.927999 30.5409 1.198 30.5409 1.534C30.5409 1.87 30.4329 2.14 30.2169 2.344C30.0009 2.548 29.7189 2.65 29.3709 2.65ZM28.3269 13C28.0989 13 27.9849 12.922 27.9849 12.766V12.694C27.9849 12.61 28.0389 12.532 28.1469 12.46C28.2549 12.376 28.3629 12.28 28.4709 12.172C28.5789 12.052 28.6329 11.902 28.6329 11.722V6.358C28.6329 6.082 28.5249 5.842 28.3089 5.638C28.0929 5.434 27.9849 5.302 27.9849 5.242V5.206C27.9849 5.122 28.0749 5.032 28.2549 4.936L29.6409 4.252C29.8329 4.18 29.9709 4.168 30.0549 4.216C30.1509 4.264 30.1989 4.36 30.1989 4.504V11.722C30.1989 11.866 30.2349 11.992 30.3069 12.1C30.3789 12.196 30.4629 12.268 30.5589 12.316C30.6549 12.364 30.7389 12.424 30.8109 12.496C30.8829 12.556 30.9189 12.622 30.9189 12.694V12.766C30.9189 12.922 30.7929 13 30.5409 13H28.3269ZM40.6239 4.36C40.8039 4.36 40.8939 4.426 40.8939 4.558V4.612C40.8939 4.72 40.7619 4.864 40.4979 5.044C40.2339 5.224 40.0599 5.416 39.9759 5.62L37.1319 12.64C37.0359 12.88 36.8799 13 36.6639 13H36.1059C35.8899 13 35.7279 12.88 35.6199 12.64L32.3979 5.62C32.3019 5.416 32.1459 5.224 31.9299 5.044C31.7259 4.864 31.6239 4.72 31.6239 4.612V4.558C31.6239 4.426 31.7139 4.36 31.8939 4.36H34.3959C34.5639 4.36 34.6479 4.432 34.6479 4.576V4.63C34.6479 4.678 34.5459 4.804 34.3419 5.008C34.1379 5.2 34.0779 5.41 34.1619 5.638L36.6999 11.866L39.1659 5.8C39.2379 5.608 39.2439 5.446 39.1839 5.314C39.1359 5.182 39.0639 5.086 38.9679 5.026C38.8719 4.966 38.7759 4.906 38.6799 4.846C38.5839 4.774 38.5359 4.702 38.5359 4.63V4.576C38.5359 4.432 38.6259 4.36 38.8059 4.36H40.6239Z" fill="#929699"/>
</svg>
