<svg width="151" height="19" viewBox="0 0 151 19" fill="none" xmlns="http://www.w3.org/2000/svg">
<path d="M0.44 14C0.188 14 0.0620001 13.928 0.0620001 13.784V13.748C0.0620001 13.652 0.17 13.52 0.386 13.352C0.614 13.172 0.728 12.968 0.728 12.74V2.48C0.728 2.24 0.614 2.036 0.386 1.868C0.17 1.688 0.0620001 1.556 0.0620001 1.472V1.436C0.0620001 1.292 0.188 1.22 0.44 1.22H4.382C6.41 1.22 8.126 1.808 9.53 2.984C10.946 4.148 11.654 5.654 11.654 7.502C11.654 9.482 11.024 11.06 9.764 12.236C8.516 13.412 6.938 14 5.03 14H0.44ZM3.176 13.262H4.922C6.362 13.262 7.562 12.8 8.522 11.876C9.494 10.94 9.98 9.674 9.98 8.078C9.98 6.266 9.392 4.796 8.216 3.668C7.052 2.528 5.678 1.958 4.094 1.958H2.834C2.498 1.958 2.33 2.15 2.33 2.534V12.272C2.33 12.584 2.402 12.83 2.546 13.01C2.702 13.178 2.912 13.262 3.176 13.262ZM20.2618 11.462C20.3458 11.33 20.4598 11.282 20.6038 11.318C20.7478 11.342 20.8078 11.438 20.7838 11.606C20.6518 12.242 20.2678 12.83 19.6318 13.37C18.9958 13.91 18.1618 14.18 17.1298 14.18C15.9418 14.18 14.9458 13.76 14.1418 12.92C13.3498 12.08 12.9538 10.976 12.9538 9.608C12.9538 8.348 13.3618 7.298 14.1778 6.458C14.9938 5.606 16.0018 5.18 17.2018 5.18C18.2218 5.18 19.0318 5.456 19.6318 6.008C20.2438 6.548 20.5498 7.16 20.5498 7.844C20.5498 8.36 20.2678 8.714 19.7038 8.906L14.7178 10.544C14.9218 11.324 15.2818 11.936 15.7978 12.38C16.3258 12.812 16.9558 13.028 17.6878 13.028C18.9238 13.028 19.7818 12.506 20.2618 11.462ZM16.9318 5.756C16.2118 5.756 15.6298 6.068 15.1858 6.692C14.7418 7.316 14.5198 8.096 14.5198 9.032C14.5198 9.392 14.5438 9.698 14.5918 9.95L18.6058 8.51C18.8938 8.39 19.0378 8.18 19.0378 7.88C19.0378 7.424 18.8278 6.956 18.4078 6.476C17.9998 5.996 17.5078 5.756 16.9318 5.756ZM26.0419 0.733999C26.6779 0.733999 27.2299 0.907999 27.6979 1.256C28.1779 1.604 28.4179 2.018 28.4179 2.498C28.4179 2.666 28.3579 2.816 28.2379 2.948C28.1179 3.068 27.9559 3.128 27.7519 3.128C27.4399 3.128 27.2119 3.038 27.0679 2.858C26.9359 2.666 26.8579 2.456 26.8339 2.228C26.8219 2 26.7319 1.79 26.5639 1.598C26.4079 1.406 26.1499 1.31 25.7899 1.31C25.2019 1.298 24.8119 1.658 24.6199 2.39C24.4399 3.122 24.4639 3.95 24.6919 4.874V5.36H27.1939C27.2659 5.36 27.3259 5.39 27.3739 5.45C27.4219 5.498 27.4459 5.552 27.4459 5.612V5.846C27.4459 6.002 27.3619 6.08 27.1939 6.08H24.6919V12.722C24.6919 12.902 24.7579 13.052 24.8899 13.172C25.0219 13.292 25.1539 13.394 25.2859 13.478C25.4299 13.562 25.5019 13.646 25.5019 13.73V13.784C25.5019 13.928 25.4119 14 25.2319 14H22.6939C22.5139 14 22.4239 13.928 22.4239 13.784V13.73C22.4239 13.646 22.4779 13.562 22.5859 13.478C22.7059 13.394 22.8199 13.292 22.9279 13.172C23.0479 13.052 23.1079 12.902 23.1079 12.722V6.08H21.6139C21.4339 6.08 21.3439 6.002 21.3439 5.846V5.612C21.3439 5.444 21.4339 5.36 21.6139 5.36H23.1079V3.794C23.1079 2.882 23.3659 2.144 23.8819 1.58C24.3979 1.016 25.1179 0.733999 26.0419 0.733999ZM35.312 12.56C35.336 12.812 35.402 13.01 35.51 13.154C35.618 13.286 35.732 13.37 35.852 13.406C35.972 13.43 36.08 13.466 36.176 13.514C36.272 13.562 36.32 13.634 36.32 13.73C36.32 13.982 35.936 14.108 35.168 14.108C34.736 14.108 34.418 14.03 34.214 13.874C34.01 13.706 33.89 13.388 33.854 12.92C33.398 13.76 32.534 14.18 31.262 14.18C30.254 14.18 29.444 13.94 28.832 13.46C28.22 12.98 27.914 12.314 27.914 11.462C27.902 10.622 28.202 9.968 28.814 9.5C29.438 9.032 30.236 8.798 31.208 8.798C32.168 8.798 32.906 9.038 33.422 9.518L33.386 9.032C33.278 7.928 33.056 7.106 32.72 6.566C32.384 6.026 31.868 5.756 31.172 5.756C30.752 5.756 30.404 5.864 30.128 6.08C29.852 6.296 29.66 6.53 29.552 6.782C29.456 7.034 29.336 7.268 29.192 7.484C29.048 7.7 28.88 7.808 28.688 7.808C28.472 7.808 28.298 7.748 28.166 7.628C28.046 7.508 27.986 7.346 27.986 7.142C27.986 6.638 28.28 6.188 28.868 5.792C29.468 5.384 30.236 5.18 31.172 5.18C32.264 5.18 33.134 5.516 33.782 6.188C34.442 6.848 34.832 7.778 34.952 8.978L35.312 12.56ZM31.658 13.604C32.246 13.604 32.726 13.418 33.098 13.046C33.47 12.662 33.644 12.188 33.62 11.624L33.548 10.814C33.452 10.382 33.224 10.034 32.864 9.77C32.516 9.506 32.084 9.374 31.568 9.374C30.956 9.374 30.458 9.548 30.074 9.896C29.69 10.244 29.498 10.694 29.498 11.246C29.498 11.918 29.696 12.482 30.092 12.938C30.5 13.382 31.022 13.604 31.658 13.604ZM45.0839 12.452C45.0839 12.752 45.1379 12.98 45.2459 13.136C45.3539 13.292 45.4679 13.382 45.5879 13.406C45.7079 13.418 45.8219 13.448 45.9299 13.496C46.0379 13.544 46.0919 13.622 46.0919 13.73C46.0919 13.982 45.7199 14.108 44.9759 14.108C44.0639 14.108 43.6259 13.664 43.6619 12.776L43.6259 12.668C43.0739 13.676 42.1499 14.18 40.8539 14.18C39.8459 14.18 39.0359 13.826 38.4239 13.118C37.8239 12.398 37.5239 11.384 37.5239 10.076V6.89C37.5239 6.626 37.4099 6.404 37.1819 6.224C36.9659 6.044 36.8579 5.918 36.8579 5.846V5.792C36.8579 5.648 36.9479 5.558 37.1279 5.522L38.6399 5.252C38.9639 5.192 39.1259 5.264 39.1259 5.468L39.1079 10.202C39.1079 11.246 39.2879 12.056 39.6479 12.632C40.0199 13.196 40.5479 13.478 41.2319 13.478C41.8799 13.478 42.4199 13.226 42.8519 12.722C43.2959 12.218 43.5179 11.558 43.5179 10.742V6.89C43.5179 6.638 43.3979 6.422 43.1579 6.242C42.9299 6.062 42.8159 5.93 42.8159 5.846V5.792C42.8159 5.648 42.9059 5.558 43.0859 5.522L44.6159 5.252C44.9279 5.192 45.0839 5.264 45.0839 5.468V12.452ZM47.5397 14C47.3117 14 47.1977 13.922 47.1977 13.766V13.712C47.1977 13.616 47.2997 13.49 47.5037 13.334C47.7197 13.166 47.8277 12.968 47.8277 12.74V2.624C47.8277 2.42 47.7737 2.252 47.6657 2.12C47.5697 1.976 47.4677 1.862 47.3597 1.778C47.2517 1.694 47.1977 1.616 47.1977 1.544V1.508C47.1977 1.412 47.2817 1.316 47.4497 1.22L48.8537 0.536C49.0337 0.464 49.1717 0.458 49.2677 0.518C49.3637 0.565999 49.4117 0.655999 49.4117 0.788V12.74C49.4117 12.968 49.5257 13.166 49.7537 13.334C49.9937 13.49 50.1137 13.616 50.1137 13.712V13.766C50.1137 13.922 49.9937 14 49.7537 14H47.5397ZM54.6736 14.18C53.9536 14.18 53.3836 13.952 52.9636 13.496C52.5556 13.028 52.3516 12.35 52.3516 11.462V6.08H51.1636C50.9836 6.08 50.8936 5.99 50.8936 5.81V5.63C50.8936 5.45 50.9836 5.36 51.1636 5.36H51.8116C52.6276 5.36 53.0836 4.79 53.1796 3.65C53.2036 3.41 53.3056 3.29 53.4856 3.29H53.6656C53.8576 3.29 53.9536 3.41 53.9536 3.65L53.9716 5.36H56.4556C56.5276 5.36 56.5876 5.39 56.6356 5.45C56.6956 5.498 56.7256 5.558 56.7256 5.63V5.81C56.7256 5.99 56.6356 6.08 56.4556 6.08H53.9716V11.48C53.9716 11.96 54.0736 12.332 54.2776 12.596C54.4816 12.86 54.7576 12.992 55.1056 12.992C55.4896 12.992 55.7956 12.896 56.0236 12.704C56.2636 12.5 56.4016 12.236 56.4376 11.912C56.4976 11.768 56.5996 11.708 56.7436 11.732C56.8996 11.744 56.9776 11.828 56.9776 11.984C56.9776 12.572 56.7616 13.088 56.3296 13.532C55.9096 13.964 55.3576 14.18 54.6736 14.18ZM63.3866 3.65C63.0146 3.65 62.7206 3.548 62.5046 3.344C62.2886 3.14 62.1806 2.87 62.1806 2.534C62.1806 2.198 62.2886 1.928 62.5046 1.724C62.7326 1.508 63.0266 1.4 63.3866 1.4C63.7346 1.4 64.0166 1.508 64.2326 1.724C64.4486 1.928 64.5566 2.198 64.5566 2.534C64.5566 2.87 64.4486 3.14 64.2326 3.344C64.0166 3.548 63.7346 3.65 63.3866 3.65ZM62.3426 14C62.1146 14 62.0006 13.922 62.0006 13.766V13.694C62.0006 13.61 62.0546 13.532 62.1626 13.46C62.2706 13.376 62.3786 13.28 62.4866 13.172C62.5946 13.052 62.6486 12.902 62.6486 12.722V7.358C62.6486 7.082 62.5406 6.842 62.3246 6.638C62.1086 6.434 62.0006 6.302 62.0006 6.242V6.206C62.0006 6.122 62.0906 6.032 62.2706 5.936L63.6566 5.252C63.8486 5.18 63.9866 5.168 64.0706 5.216C64.1666 5.264 64.2146 5.36 64.2146 5.504V12.722C64.2146 12.866 64.2506 12.992 64.3226 13.1C64.3946 13.196 64.4786 13.268 64.5746 13.316C64.6706 13.364 64.7546 13.424 64.8266 13.496C64.8986 13.556 64.9346 13.622 64.9346 13.694V13.766C64.9346 13.922 64.8086 14 64.5566 14H62.3426ZM70.6255 14.18C69.3655 14.18 68.2975 13.748 67.4215 12.884C66.5575 12.008 66.1255 10.922 66.1255 9.626C66.1255 8.306 66.5455 7.238 67.3855 6.422C68.2375 5.606 69.2935 5.192 70.5535 5.18C71.4895 5.168 72.3055 5.408 73.0015 5.9C73.7095 6.38 74.0635 6.884 74.0635 7.412C74.0635 7.844 73.8235 8.054 73.3435 8.042C73.1155 8.03 72.8995 7.91 72.6955 7.682C72.5035 7.442 72.3295 7.184 72.1735 6.908C72.0295 6.62 71.7895 6.356 71.4535 6.116C71.1295 5.876 70.7335 5.756 70.2655 5.756C69.5215 5.756 68.9095 6.062 68.4295 6.674C67.9495 7.274 67.7095 8.024 67.7095 8.924C67.7095 10.172 68.0275 11.174 68.6635 11.93C69.2995 12.674 70.1215 13.046 71.1295 13.046C71.7175 13.046 72.2215 12.89 72.6415 12.578C73.0735 12.254 73.4035 11.846 73.6315 11.354C73.7035 11.21 73.8175 11.156 73.9735 11.192C74.1295 11.228 74.1895 11.33 74.1535 11.498C74.0095 12.23 73.6255 12.86 73.0015 13.388C72.3895 13.916 71.5975 14.18 70.6255 14.18ZM79.9307 14.18C78.5387 14.18 77.4047 13.73 76.5287 12.83C75.6647 11.918 75.2327 10.826 75.2327 9.554C75.2327 8.306 75.6527 7.268 76.4927 6.44C77.3327 5.6 78.3707 5.18 79.6067 5.18C80.9387 5.18 82.0307 5.624 82.8827 6.512C83.7467 7.388 84.1787 8.468 84.1787 9.752C84.1787 11.012 83.7827 12.068 82.9907 12.92C82.1987 13.76 81.1787 14.18 79.9307 14.18ZM80.1467 13.586C80.8547 13.586 81.4367 13.286 81.8927 12.686C82.3607 12.086 82.5947 11.288 82.5947 10.292C82.5947 9.02 82.2947 7.952 81.6947 7.088C81.0947 6.212 80.3387 5.774 79.4267 5.774C78.6587 5.774 78.0347 6.074 77.5547 6.674C77.0747 7.262 76.8347 8.054 76.8347 9.05C76.8347 10.25 77.1467 11.306 77.7707 12.218C78.3947 13.13 79.1867 13.586 80.1467 13.586ZM94.0684 12.704C94.0804 12.896 94.1404 13.052 94.2484 13.172C94.3564 13.292 94.4584 13.394 94.5544 13.478C94.6624 13.55 94.7164 13.628 94.7164 13.712V13.784C94.7164 13.94 94.5904 14.018 94.3384 14.018H92.1964C91.9444 14.018 91.8184 13.94 91.8184 13.784V13.712C91.8184 13.628 91.9264 13.502 92.1424 13.334C92.3704 13.166 92.4784 12.962 92.4664 12.722L92.2864 9.122C92.2384 8.054 92.0164 7.25 91.6204 6.71C91.2364 6.158 90.7204 5.882 90.0724 5.882C89.4124 5.882 88.8724 6.116 88.4524 6.584C88.0324 7.052 87.8224 7.646 87.8224 8.366V12.74C87.8224 12.884 87.8584 13.01 87.9304 13.118C88.0144 13.214 88.0984 13.286 88.1824 13.334C88.2664 13.382 88.3444 13.442 88.4164 13.514C88.5004 13.574 88.5424 13.64 88.5424 13.712V13.784C88.5424 13.94 88.4164 14.018 88.1644 14.018H85.9144C85.6744 14.018 85.5544 13.94 85.5544 13.784V13.712C85.5544 13.616 85.6684 13.49 85.8964 13.334C86.1364 13.178 86.2564 12.98 86.2564 12.74V7.286C86.2564 7.058 86.1904 6.884 86.0584 6.764C85.9384 6.632 85.8124 6.53 85.6804 6.458C85.5604 6.386 85.5004 6.308 85.5004 6.224V6.17C85.5004 6.062 85.5964 5.972 85.7884 5.9L87.1384 5.252C87.3064 5.168 87.4324 5.156 87.5164 5.216C87.6004 5.276 87.6424 5.378 87.6424 5.522V6.836C87.9064 6.332 88.2844 5.93 88.7764 5.63C89.2804 5.33 89.8384 5.18 90.4504 5.18C91.3864 5.18 92.1664 5.51 92.7904 6.17C93.4264 6.83 93.7864 7.826 93.8704 9.158L94.0684 12.704ZM99.3643 14.162C98.2603 14.162 97.3723 13.94 96.7003 13.496C96.0403 13.052 95.7103 12.59 95.7103 12.11C95.7103 11.666 95.9443 11.444 96.4123 11.444C96.6163 11.444 96.7783 11.522 96.8983 11.678C97.0303 11.822 97.1443 12.002 97.2403 12.218C97.3363 12.434 97.4503 12.65 97.5823 12.866C97.7263 13.082 97.9483 13.268 98.2483 13.424C98.5483 13.568 98.9203 13.64 99.3643 13.64C99.9643 13.64 100.456 13.502 100.84 13.226C101.224 12.938 101.416 12.548 101.416 12.056C101.416 11.576 101.224 11.204 100.84 10.94C100.468 10.676 100.012 10.49 99.4723 10.382C98.9323 10.262 98.3923 10.13 97.8523 9.986C97.3123 9.842 96.8503 9.578 96.4663 9.194C96.0943 8.81 95.9083 8.294 95.9083 7.646C95.9083 6.95 96.2263 6.368 96.8623 5.9C97.4983 5.42 98.3083 5.18 99.2923 5.18C100.336 5.18 101.182 5.402 101.83 5.846C102.478 6.29 102.802 6.776 102.802 7.304C102.802 7.484 102.736 7.634 102.604 7.754C102.484 7.874 102.334 7.934 102.154 7.934C101.938 7.934 101.752 7.82 101.596 7.592C101.44 7.364 101.308 7.112 101.2 6.836C101.104 6.56 100.9 6.308 100.588 6.08C100.276 5.852 99.8683 5.738 99.3643 5.738C98.8363 5.738 98.3923 5.888 98.0323 6.188C97.6843 6.488 97.5103 6.86 97.5103 7.304C97.5103 7.772 97.6963 8.138 98.0683 8.402C98.4523 8.654 98.9143 8.84 99.4543 8.96C99.9943 9.08 100.528 9.212 101.056 9.356C101.596 9.5 102.052 9.77 102.424 10.166C102.808 10.55 103 11.072 103 11.732C103 12.428 102.664 13.01 101.992 13.478C101.332 13.934 100.456 14.162 99.3643 14.162ZM112.836 6.044C114.024 6.044 115.02 6.404 115.824 7.124C116.628 7.844 117.03 8.768 117.03 9.896C117.03 11.144 116.61 12.17 115.77 12.974C114.93 13.778 113.82 14.18 112.44 14.18C111.084 14.18 110.04 13.94 109.308 13.46C108.576 12.968 108.21 12.452 108.21 11.912C108.21 11.648 108.288 11.45 108.444 11.318C108.6 11.186 108.792 11.12 109.02 11.12C109.2 11.12 109.356 11.198 109.488 11.354C109.632 11.51 109.77 11.702 109.902 11.93C110.034 12.158 110.19 12.386 110.37 12.614C110.562 12.83 110.832 13.016 111.18 13.172C111.54 13.328 111.966 13.406 112.458 13.406C113.322 13.406 114.03 13.112 114.582 12.524C115.134 11.924 115.41 11.144 115.41 10.184C115.41 9.164 115.14 8.348 114.6 7.736C114.072 7.124 113.34 6.818 112.404 6.818C111.576 6.818 110.688 7.13 109.74 7.754C109.548 7.898 109.338 7.916 109.11 7.808C108.894 7.688 108.798 7.508 108.822 7.268L109.614 1.454C109.614 1.298 109.71 1.22 109.902 1.22H116.4C116.556 1.22 116.634 1.304 116.634 1.472V2.264C116.634 2.432 116.556 2.516 116.4 2.516H110.424L109.632 6.998C110.52 6.362 111.588 6.044 112.836 6.044ZM127.138 11.264C127.234 11.264 127.306 11.294 127.354 11.354C127.402 11.414 127.414 11.498 127.39 11.606L126.886 13.622C126.802 13.874 126.658 14 126.454 14H118.642C118.414 14 118.3 13.892 118.3 13.676V13.532C118.3 12.968 118.462 12.398 118.786 11.822C119.122 11.246 119.536 10.73 120.028 10.274C120.532 9.806 121.072 9.32 121.648 8.816C122.236 8.3 122.776 7.82 123.268 7.376C123.772 6.932 124.186 6.44 124.51 5.9C124.846 5.348 125.014 4.808 125.014 4.28C125.014 3.524 124.78 2.918 124.312 2.462C123.856 2.006 123.334 1.778 122.746 1.778C122.17 1.778 121.684 1.94 121.288 2.264C120.904 2.576 120.64 2.924 120.496 3.308C120.352 3.68 120.178 4.028 119.974 4.352C119.77 4.664 119.542 4.82 119.29 4.82C119.038 4.82 118.834 4.748 118.678 4.604C118.522 4.46 118.444 4.262 118.444 4.01C118.444 3.338 118.84 2.678 119.632 2.03C120.424 1.37 121.432 1.04 122.656 1.04C123.832 1.04 124.786 1.334 125.518 1.922C126.262 2.51 126.634 3.338 126.634 4.406C126.634 5.102 126.412 5.774 125.968 6.422C125.524 7.07 124.972 7.646 124.312 8.15C123.664 8.654 123.01 9.146 122.35 9.626C121.69 10.106 121.102 10.622 120.586 11.174C120.07 11.726 119.764 12.278 119.668 12.83H125.41C125.722 12.83 125.974 12.704 126.166 12.452C126.37 12.188 126.532 11.924 126.652 11.66C126.784 11.396 126.904 11.264 127.012 11.264H127.138ZM137.487 5.18C138.627 5.18 139.599 5.588 140.403 6.404C141.219 7.208 141.627 8.258 141.627 9.554C141.627 10.874 141.225 11.978 140.421 12.866C139.629 13.742 138.657 14.18 137.505 14.18C136.401 14.18 135.513 13.766 134.841 12.938V16.808C134.841 17 134.901 17.156 135.021 17.276C135.141 17.396 135.255 17.492 135.363 17.564C135.483 17.648 135.543 17.732 135.543 17.816V17.87C135.543 18.026 135.423 18.104 135.183 18.104H132.969C132.717 18.104 132.591 18.026 132.591 17.87V17.816C132.591 17.744 132.627 17.672 132.699 17.6C132.771 17.54 132.843 17.486 132.915 17.438C132.999 17.39 133.077 17.312 133.149 17.204C133.221 17.096 133.257 16.964 133.257 16.808V7.268C133.257 7.04 133.137 6.842 132.897 6.674C132.657 6.494 132.537 6.356 132.537 6.26V6.206C132.537 6.062 132.633 5.954 132.825 5.882L134.121 5.252C134.457 5.096 134.625 5.18 134.625 5.504L134.607 6.692C134.883 6.224 135.273 5.858 135.777 5.594C136.293 5.318 136.863 5.18 137.487 5.18ZM137.289 13.604C138.117 13.604 138.777 13.28 139.269 12.632C139.773 11.972 140.025 11.09 140.025 9.986C140.025 8.738 139.755 7.724 139.215 6.944C138.675 6.152 137.967 5.756 137.091 5.756C136.539 5.756 136.041 5.954 135.597 6.35C135.165 6.734 134.913 7.202 134.841 7.754V10.832C134.841 11.552 135.087 12.194 135.579 12.758C136.083 13.322 136.653 13.604 137.289 13.604ZM149.741 12.668C149.861 12.824 150.011 12.974 150.191 13.118C150.371 13.25 150.503 13.364 150.587 13.46C150.683 13.544 150.731 13.634 150.731 13.73V13.784C150.731 13.928 150.641 14 150.461 14H147.941C147.761 14 147.671 13.922 147.671 13.766V13.73C147.671 13.658 147.737 13.574 147.869 13.478C148.001 13.37 148.085 13.274 148.121 13.19C148.169 13.094 148.109 12.914 147.941 12.65L146.087 10.31L144.089 12.686C143.945 12.854 143.867 13.004 143.855 13.136C143.855 13.256 143.897 13.34 143.981 13.388C144.065 13.436 144.149 13.49 144.233 13.55C144.317 13.61 144.359 13.67 144.359 13.73V13.766C144.359 13.922 144.263 14 144.071 14H142.127C141.947 14 141.857 13.928 141.857 13.784V13.73C141.857 13.646 141.905 13.568 142.001 13.496C142.109 13.424 142.271 13.316 142.487 13.172C142.703 13.016 142.901 12.836 143.081 12.632L145.601 9.698L143.261 6.728C143.093 6.512 142.913 6.338 142.721 6.206C142.541 6.062 142.409 5.96 142.325 5.9C142.241 5.828 142.199 5.738 142.199 5.63V5.576C142.199 5.432 142.283 5.36 142.451 5.36H144.917C145.097 5.36 145.187 5.432 145.187 5.576V5.63C145.187 5.714 145.133 5.822 145.025 5.954C144.929 6.074 144.869 6.182 144.845 6.278C144.821 6.362 144.881 6.518 145.025 6.746L146.825 8.996L148.805 6.746C148.961 6.506 149.021 6.338 148.985 6.242C148.949 6.146 148.865 6.038 148.733 5.918C148.601 5.798 148.535 5.702 148.535 5.63V5.576C148.535 5.432 148.625 5.36 148.805 5.36H150.407C150.587 5.36 150.677 5.432 150.677 5.576V5.63C150.677 5.726 150.641 5.816 150.569 5.9C150.509 5.972 150.389 6.086 150.209 6.242C150.041 6.386 149.879 6.548 149.723 6.728L147.275 9.572L149.741 12.668Z" fill="#929699"/>
</svg>
