<svg width="57" height="15" viewBox="0 0 57 15" fill="none" xmlns="http://www.w3.org/2000/svg">
<path d="M0.44 14C0.188 14 0.0620001 13.928 0.0620001 13.784V13.748C0.0620001 13.652 0.17 13.52 0.386 13.352C0.614 13.172 0.728 12.968 0.728 12.74V2.48C0.728 2.24 0.614 2.036 0.386 1.868C0.17 1.688 0.0620001 1.556 0.0620001 1.472V1.436C0.0620001 1.292 0.188 1.22 0.44 1.22H4.382C6.41 1.22 8.126 1.808 9.53 2.984C10.946 4.148 11.654 5.654 11.654 7.502C11.654 9.482 11.024 11.06 9.764 12.236C8.516 13.412 6.938 14 5.03 14H0.44ZM3.176 13.262H4.922C6.362 13.262 7.562 12.8 8.522 11.876C9.494 10.94 9.98 9.674 9.98 8.078C9.98 6.266 9.392 4.796 8.216 3.668C7.052 2.528 5.678 1.958 4.094 1.958H2.834C2.498 1.958 2.33 2.15 2.33 2.534V12.272C2.33 12.584 2.402 12.83 2.546 13.01C2.702 13.178 2.912 13.262 3.176 13.262ZM20.2618 11.462C20.3458 11.33 20.4598 11.282 20.6038 11.318C20.7478 11.342 20.8078 11.438 20.7838 11.606C20.6518 12.242 20.2678 12.83 19.6318 13.37C18.9958 13.91 18.1618 14.18 17.1298 14.18C15.9418 14.18 14.9458 13.76 14.1418 12.92C13.3498 12.08 12.9538 10.976 12.9538 9.608C12.9538 8.348 13.3618 7.298 14.1778 6.458C14.9938 5.606 16.0018 5.18 17.2018 5.18C18.2218 5.18 19.0318 5.456 19.6318 6.008C20.2438 6.548 20.5498 7.16 20.5498 7.844C20.5498 8.36 20.2678 8.714 19.7038 8.906L14.7178 10.544C14.9218 11.324 15.2818 11.936 15.7978 12.38C16.3258 12.812 16.9558 13.028 17.6878 13.028C18.9238 13.028 19.7818 12.506 20.2618 11.462ZM16.9318 5.756C16.2118 5.756 15.6298 6.068 15.1858 6.692C14.7418 7.316 14.5198 8.096 14.5198 9.032C14.5198 9.392 14.5438 9.698 14.5918 9.95L18.6058 8.51C18.8938 8.39 19.0378 8.18 19.0378 7.88C19.0378 7.424 18.8278 6.956 18.4078 6.476C17.9998 5.996 17.5078 5.756 16.9318 5.756ZM26.0419 0.733999C26.6779 0.733999 27.2299 0.907999 27.6979 1.256C28.1779 1.604 28.4179 2.018 28.4179 2.498C28.4179 2.666 28.3579 2.816 28.2379 2.948C28.1179 3.068 27.9559 3.128 27.7519 3.128C27.4399 3.128 27.2119 3.038 27.0679 2.858C26.9359 2.666 26.8579 2.456 26.8339 2.228C26.8219 2 26.7319 1.79 26.5639 1.598C26.4079 1.406 26.1499 1.31 25.7899 1.31C25.2019 1.298 24.8119 1.658 24.6199 2.39C24.4399 3.122 24.4639 3.95 24.6919 4.874V5.36H27.1939C27.2659 5.36 27.3259 5.39 27.3739 5.45C27.4219 5.498 27.4459 5.552 27.4459 5.612V5.846C27.4459 6.002 27.3619 6.08 27.1939 6.08H24.6919V12.722C24.6919 12.902 24.7579 13.052 24.8899 13.172C25.0219 13.292 25.1539 13.394 25.2859 13.478C25.4299 13.562 25.5019 13.646 25.5019 13.73V13.784C25.5019 13.928 25.4119 14 25.2319 14H22.6939C22.5139 14 22.4239 13.928 22.4239 13.784V13.73C22.4239 13.646 22.4779 13.562 22.5859 13.478C22.7059 13.394 22.8199 13.292 22.9279 13.172C23.0479 13.052 23.1079 12.902 23.1079 12.722V6.08H21.6139C21.4339 6.08 21.3439 6.002 21.3439 5.846V5.612C21.3439 5.444 21.4339 5.36 21.6139 5.36H23.1079V3.794C23.1079 2.882 23.3659 2.144 23.8819 1.58C24.3979 1.016 25.1179 0.733999 26.0419 0.733999ZM35.312 12.56C35.336 12.812 35.402 13.01 35.51 13.154C35.618 13.286 35.732 13.37 35.852 13.406C35.972 13.43 36.08 13.466 36.176 13.514C36.272 13.562 36.32 13.634 36.32 13.73C36.32 13.982 35.936 14.108 35.168 14.108C34.736 14.108 34.418 14.03 34.214 13.874C34.01 13.706 33.89 13.388 33.854 12.92C33.398 13.76 32.534 14.18 31.262 14.18C30.254 14.18 29.444 13.94 28.832 13.46C28.22 12.98 27.914 12.314 27.914 11.462C27.902 10.622 28.202 9.968 28.814 9.5C29.438 9.032 30.236 8.798 31.208 8.798C32.168 8.798 32.906 9.038 33.422 9.518L33.386 9.032C33.278 7.928 33.056 7.106 32.72 6.566C32.384 6.026 31.868 5.756 31.172 5.756C30.752 5.756 30.404 5.864 30.128 6.08C29.852 6.296 29.66 6.53 29.552 6.782C29.456 7.034 29.336 7.268 29.192 7.484C29.048 7.7 28.88 7.808 28.688 7.808C28.472 7.808 28.298 7.748 28.166 7.628C28.046 7.508 27.986 7.346 27.986 7.142C27.986 6.638 28.28 6.188 28.868 5.792C29.468 5.384 30.236 5.18 31.172 5.18C32.264 5.18 33.134 5.516 33.782 6.188C34.442 6.848 34.832 7.778 34.952 8.978L35.312 12.56ZM31.658 13.604C32.246 13.604 32.726 13.418 33.098 13.046C33.47 12.662 33.644 12.188 33.62 11.624L33.548 10.814C33.452 10.382 33.224 10.034 32.864 9.77C32.516 9.506 32.084 9.374 31.568 9.374C30.956 9.374 30.458 9.548 30.074 9.896C29.69 10.244 29.498 10.694 29.498 11.246C29.498 11.918 29.696 12.482 30.092 12.938C30.5 13.382 31.022 13.604 31.658 13.604ZM45.0839 12.452C45.0839 12.752 45.1379 12.98 45.2459 13.136C45.3539 13.292 45.4679 13.382 45.5879 13.406C45.7079 13.418 45.8219 13.448 45.9299 13.496C46.0379 13.544 46.0919 13.622 46.0919 13.73C46.0919 13.982 45.7199 14.108 44.9759 14.108C44.0639 14.108 43.6259 13.664 43.6619 12.776L43.6259 12.668C43.0739 13.676 42.1499 14.18 40.8539 14.18C39.8459 14.18 39.0359 13.826 38.4239 13.118C37.8239 12.398 37.5239 11.384 37.5239 10.076V6.89C37.5239 6.626 37.4099 6.404 37.1819 6.224C36.9659 6.044 36.8579 5.918 36.8579 5.846V5.792C36.8579 5.648 36.9479 5.558 37.1279 5.522L38.6399 5.252C38.9639 5.192 39.1259 5.264 39.1259 5.468L39.1079 10.202C39.1079 11.246 39.2879 12.056 39.6479 12.632C40.0199 13.196 40.5479 13.478 41.2319 13.478C41.8799 13.478 42.4199 13.226 42.8519 12.722C43.2959 12.218 43.5179 11.558 43.5179 10.742V6.89C43.5179 6.638 43.3979 6.422 43.1579 6.242C42.9299 6.062 42.8159 5.93 42.8159 5.846V5.792C42.8159 5.648 42.9059 5.558 43.0859 5.522L44.6159 5.252C44.9279 5.192 45.0839 5.264 45.0839 5.468V12.452ZM47.5397 14C47.3117 14 47.1977 13.922 47.1977 13.766V13.712C47.1977 13.616 47.2997 13.49 47.5037 13.334C47.7197 13.166 47.8277 12.968 47.8277 12.74V2.624C47.8277 2.42 47.7737 2.252 47.6657 2.12C47.5697 1.976 47.4677 1.862 47.3597 1.778C47.2517 1.694 47.1977 1.616 47.1977 1.544V1.508C47.1977 1.412 47.2817 1.316 47.4497 1.22L48.8537 0.536C49.0337 0.464 49.1717 0.458 49.2677 0.518C49.3637 0.565999 49.4117 0.655999 49.4117 0.788V12.74C49.4117 12.968 49.5257 13.166 49.7537 13.334C49.9937 13.49 50.1137 13.616 50.1137 13.712V13.766C50.1137 13.922 49.9937 14 49.7537 14H47.5397ZM54.6736 14.18C53.9536 14.18 53.3836 13.952 52.9636 13.496C52.5556 13.028 52.3516 12.35 52.3516 11.462V6.08H51.1636C50.9836 6.08 50.8936 5.99 50.8936 5.81V5.63C50.8936 5.45 50.9836 5.36 51.1636 5.36H51.8116C52.6276 5.36 53.0836 4.79 53.1796 3.65C53.2036 3.41 53.3056 3.29 53.4856 3.29H53.6656C53.8576 3.29 53.9536 3.41 53.9536 3.65L53.9716 5.36H56.4556C56.5276 5.36 56.5876 5.39 56.6356 5.45C56.6956 5.498 56.7256 5.558 56.7256 5.63V5.81C56.7256 5.99 56.6356 6.08 56.4556 6.08H53.9716V11.48C53.9716 11.96 54.0736 12.332 54.2776 12.596C54.4816 12.86 54.7576 12.992 55.1056 12.992C55.4896 12.992 55.7956 12.896 56.0236 12.704C56.2636 12.5 56.4016 12.236 56.4376 11.912C56.4976 11.768 56.5996 11.708 56.7436 11.732C56.8996 11.744 56.9776 11.828 56.9776 11.984C56.9776 12.572 56.7616 13.088 56.3296 13.532C55.9096 13.964 55.3576 14.18 54.6736 14.18Z" fill="#929699"/>
</svg>
