<svg width="154" height="19" viewBox="0 0 154 19" fill="none" xmlns="http://www.w3.org/2000/svg">
<path d="M0.44 14C0.188 14 0.0620001 13.928 0.0620001 13.784V13.748C0.0620001 13.652 0.17 13.52 0.386 13.352C0.614 13.172 0.728 12.968 0.728 12.74V2.48C0.728 2.24 0.614 2.036 0.386 1.868C0.17 1.688 0.0620001 1.556 0.0620001 1.472V1.436C0.0620001 1.292 0.188 1.22 0.44 1.22H4.382C6.41 1.22 8.126 1.808 9.53 2.984C10.946 4.148 11.654 5.654 11.654 7.502C11.654 9.482 11.024 11.06 9.764 12.236C8.516 13.412 6.938 14 5.03 14H0.44ZM3.176 13.262H4.922C6.362 13.262 7.562 12.8 8.522 11.876C9.494 10.94 9.98 9.674 9.98 8.078C9.98 6.266 9.392 4.796 8.216 3.668C7.052 2.528 5.678 1.958 4.094 1.958H2.834C2.498 1.958 2.33 2.15 2.33 2.534V12.272C2.33 12.584 2.402 12.83 2.546 13.01C2.702 13.178 2.912 13.262 3.176 13.262ZM20.2618 11.462C20.3458 11.33 20.4598 11.282 20.6038 11.318C20.7478 11.342 20.8078 11.438 20.7838 11.606C20.6518 12.242 20.2678 12.83 19.6318 13.37C18.9958 13.91 18.1618 14.18 17.1298 14.18C15.9418 14.18 14.9458 13.76 14.1418 12.92C13.3498 12.08 12.9538 10.976 12.9538 9.608C12.9538 8.348 13.3618 7.298 14.1778 6.458C14.9938 5.606 16.0018 5.18 17.2018 5.18C18.2218 5.18 19.0318 5.456 19.6318 6.008C20.2438 6.548 20.5498 7.16 20.5498 7.844C20.5498 8.36 20.2678 8.714 19.7038 8.906L14.7178 10.544C14.9218 11.324 15.2818 11.936 15.7978 12.38C16.3258 12.812 16.9558 13.028 17.6878 13.028C18.9238 13.028 19.7818 12.506 20.2618 11.462ZM16.9318 5.756C16.2118 5.756 15.6298 6.068 15.1858 6.692C14.7418 7.316 14.5198 8.096 14.5198 9.032C14.5198 9.392 14.5438 9.698 14.5918 9.95L18.6058 8.51C18.8938 8.39 19.0378 8.18 19.0378 7.88C19.0378 7.424 18.8278 6.956 18.4078 6.476C17.9998 5.996 17.5078 5.756 16.9318 5.756ZM26.0419 0.733999C26.6779 0.733999 27.2299 0.907999 27.6979 1.256C28.1779 1.604 28.4179 2.018 28.4179 2.498C28.4179 2.666 28.3579 2.816 28.2379 2.948C28.1179 3.068 27.9559 3.128 27.7519 3.128C27.4399 3.128 27.2119 3.038 27.0679 2.858C26.9359 2.666 26.8579 2.456 26.8339 2.228C26.8219 2 26.7319 1.79 26.5639 1.598C26.4079 1.406 26.1499 1.31 25.7899 1.31C25.2019 1.298 24.8119 1.658 24.6199 2.39C24.4399 3.122 24.4639 3.95 24.6919 4.874V5.36H27.1939C27.2659 5.36 27.3259 5.39 27.3739 5.45C27.4219 5.498 27.4459 5.552 27.4459 5.612V5.846C27.4459 6.002 27.3619 6.08 27.1939 6.08H24.6919V12.722C24.6919 12.902 24.7579 13.052 24.8899 13.172C25.0219 13.292 25.1539 13.394 25.2859 13.478C25.4299 13.562 25.5019 13.646 25.5019 13.73V13.784C25.5019 13.928 25.4119 14 25.2319 14H22.6939C22.5139 14 22.4239 13.928 22.4239 13.784V13.73C22.4239 13.646 22.4779 13.562 22.5859 13.478C22.7059 13.394 22.8199 13.292 22.9279 13.172C23.0479 13.052 23.1079 12.902 23.1079 12.722V6.08H21.6139C21.4339 6.08 21.3439 6.002 21.3439 5.846V5.612C21.3439 5.444 21.4339 5.36 21.6139 5.36H23.1079V3.794C23.1079 2.882 23.3659 2.144 23.8819 1.58C24.3979 1.016 25.1179 0.733999 26.0419 0.733999ZM35.312 12.56C35.336 12.812 35.402 13.01 35.51 13.154C35.618 13.286 35.732 13.37 35.852 13.406C35.972 13.43 36.08 13.466 36.176 13.514C36.272 13.562 36.32 13.634 36.32 13.73C36.32 13.982 35.936 14.108 35.168 14.108C34.736 14.108 34.418 14.03 34.214 13.874C34.01 13.706 33.89 13.388 33.854 12.92C33.398 13.76 32.534 14.18 31.262 14.18C30.254 14.18 29.444 13.94 28.832 13.46C28.22 12.98 27.914 12.314 27.914 11.462C27.902 10.622 28.202 9.968 28.814 9.5C29.438 9.032 30.236 8.798 31.208 8.798C32.168 8.798 32.906 9.038 33.422 9.518L33.386 9.032C33.278 7.928 33.056 7.106 32.72 6.566C32.384 6.026 31.868 5.756 31.172 5.756C30.752 5.756 30.404 5.864 30.128 6.08C29.852 6.296 29.66 6.53 29.552 6.782C29.456 7.034 29.336 7.268 29.192 7.484C29.048 7.7 28.88 7.808 28.688 7.808C28.472 7.808 28.298 7.748 28.166 7.628C28.046 7.508 27.986 7.346 27.986 7.142C27.986 6.638 28.28 6.188 28.868 5.792C29.468 5.384 30.236 5.18 31.172 5.18C32.264 5.18 33.134 5.516 33.782 6.188C34.442 6.848 34.832 7.778 34.952 8.978L35.312 12.56ZM31.658 13.604C32.246 13.604 32.726 13.418 33.098 13.046C33.47 12.662 33.644 12.188 33.62 11.624L33.548 10.814C33.452 10.382 33.224 10.034 32.864 9.77C32.516 9.506 32.084 9.374 31.568 9.374C30.956 9.374 30.458 9.548 30.074 9.896C29.69 10.244 29.498 10.694 29.498 11.246C29.498 11.918 29.696 12.482 30.092 12.938C30.5 13.382 31.022 13.604 31.658 13.604ZM45.0839 12.452C45.0839 12.752 45.1379 12.98 45.2459 13.136C45.3539 13.292 45.4679 13.382 45.5879 13.406C45.7079 13.418 45.8219 13.448 45.9299 13.496C46.0379 13.544 46.0919 13.622 46.0919 13.73C46.0919 13.982 45.7199 14.108 44.9759 14.108C44.0639 14.108 43.6259 13.664 43.6619 12.776L43.6259 12.668C43.0739 13.676 42.1499 14.18 40.8539 14.18C39.8459 14.18 39.0359 13.826 38.4239 13.118C37.8239 12.398 37.5239 11.384 37.5239 10.076V6.89C37.5239 6.626 37.4099 6.404 37.1819 6.224C36.9659 6.044 36.8579 5.918 36.8579 5.846V5.792C36.8579 5.648 36.9479 5.558 37.1279 5.522L38.6399 5.252C38.9639 5.192 39.1259 5.264 39.1259 5.468L39.1079 10.202C39.1079 11.246 39.2879 12.056 39.6479 12.632C40.0199 13.196 40.5479 13.478 41.2319 13.478C41.8799 13.478 42.4199 13.226 42.8519 12.722C43.2959 12.218 43.5179 11.558 43.5179 10.742V6.89C43.5179 6.638 43.3979 6.422 43.1579 6.242C42.9299 6.062 42.8159 5.93 42.8159 5.846V5.792C42.8159 5.648 42.9059 5.558 43.0859 5.522L44.6159 5.252C44.9279 5.192 45.0839 5.264 45.0839 5.468V12.452ZM47.5397 14C47.3117 14 47.1977 13.922 47.1977 13.766V13.712C47.1977 13.616 47.2997 13.49 47.5037 13.334C47.7197 13.166 47.8277 12.968 47.8277 12.74V2.624C47.8277 2.42 47.7737 2.252 47.6657 2.12C47.5697 1.976 47.4677 1.862 47.3597 1.778C47.2517 1.694 47.1977 1.616 47.1977 1.544V1.508C47.1977 1.412 47.2817 1.316 47.4497 1.22L48.8537 0.536C49.0337 0.464 49.1717 0.458 49.2677 0.518C49.3637 0.565999 49.4117 0.655999 49.4117 0.788V12.74C49.4117 12.968 49.5257 13.166 49.7537 13.334C49.9937 13.49 50.1137 13.616 50.1137 13.712V13.766C50.1137 13.922 49.9937 14 49.7537 14H47.5397ZM54.6736 14.18C53.9536 14.18 53.3836 13.952 52.9636 13.496C52.5556 13.028 52.3516 12.35 52.3516 11.462V6.08H51.1636C50.9836 6.08 50.8936 5.99 50.8936 5.81V5.63C50.8936 5.45 50.9836 5.36 51.1636 5.36H51.8116C52.6276 5.36 53.0836 4.79 53.1796 3.65C53.2036 3.41 53.3056 3.29 53.4856 3.29H53.6656C53.8576 3.29 53.9536 3.41 53.9536 3.65L53.9716 5.36H56.4556C56.5276 5.36 56.5876 5.39 56.6356 5.45C56.6956 5.498 56.7256 5.558 56.7256 5.63V5.81C56.7256 5.99 56.6356 6.08 56.4556 6.08H53.9716V11.48C53.9716 11.96 54.0736 12.332 54.2776 12.596C54.4816 12.86 54.7576 12.992 55.1056 12.992C55.4896 12.992 55.7956 12.896 56.0236 12.704C56.2636 12.5 56.4016 12.236 56.4376 11.912C56.4976 11.768 56.5996 11.708 56.7436 11.732C56.8996 11.744 56.9776 11.828 56.9776 11.984C56.9776 12.572 56.7616 13.088 56.3296 13.532C55.9096 13.964 55.3576 14.18 54.6736 14.18ZM63.3866 3.65C63.0146 3.65 62.7206 3.548 62.5046 3.344C62.2886 3.14 62.1806 2.87 62.1806 2.534C62.1806 2.198 62.2886 1.928 62.5046 1.724C62.7326 1.508 63.0266 1.4 63.3866 1.4C63.7346 1.4 64.0166 1.508 64.2326 1.724C64.4486 1.928 64.5566 2.198 64.5566 2.534C64.5566 2.87 64.4486 3.14 64.2326 3.344C64.0166 3.548 63.7346 3.65 63.3866 3.65ZM62.3426 14C62.1146 14 62.0006 13.922 62.0006 13.766V13.694C62.0006 13.61 62.0546 13.532 62.1626 13.46C62.2706 13.376 62.3786 13.28 62.4866 13.172C62.5946 13.052 62.6486 12.902 62.6486 12.722V7.358C62.6486 7.082 62.5406 6.842 62.3246 6.638C62.1086 6.434 62.0006 6.302 62.0006 6.242V6.206C62.0006 6.122 62.0906 6.032 62.2706 5.936L63.6566 5.252C63.8486 5.18 63.9866 5.168 64.0706 5.216C64.1666 5.264 64.2146 5.36 64.2146 5.504V12.722C64.2146 12.866 64.2506 12.992 64.3226 13.1C64.3946 13.196 64.4786 13.268 64.5746 13.316C64.6706 13.364 64.7546 13.424 64.8266 13.496C64.8986 13.556 64.9346 13.622 64.9346 13.694V13.766C64.9346 13.922 64.8086 14 64.5566 14H62.3426ZM70.6255 14.18C69.3655 14.18 68.2975 13.748 67.4215 12.884C66.5575 12.008 66.1255 10.922 66.1255 9.626C66.1255 8.306 66.5455 7.238 67.3855 6.422C68.2375 5.606 69.2935 5.192 70.5535 5.18C71.4895 5.168 72.3055 5.408 73.0015 5.9C73.7095 6.38 74.0635 6.884 74.0635 7.412C74.0635 7.844 73.8235 8.054 73.3435 8.042C73.1155 8.03 72.8995 7.91 72.6955 7.682C72.5035 7.442 72.3295 7.184 72.1735 6.908C72.0295 6.62 71.7895 6.356 71.4535 6.116C71.1295 5.876 70.7335 5.756 70.2655 5.756C69.5215 5.756 68.9095 6.062 68.4295 6.674C67.9495 7.274 67.7095 8.024 67.7095 8.924C67.7095 10.172 68.0275 11.174 68.6635 11.93C69.2995 12.674 70.1215 13.046 71.1295 13.046C71.7175 13.046 72.2215 12.89 72.6415 12.578C73.0735 12.254 73.4035 11.846 73.6315 11.354C73.7035 11.21 73.8175 11.156 73.9735 11.192C74.1295 11.228 74.1895 11.33 74.1535 11.498C74.0095 12.23 73.6255 12.86 73.0015 13.388C72.3895 13.916 71.5975 14.18 70.6255 14.18ZM79.9307 14.18C78.5387 14.18 77.4047 13.73 76.5287 12.83C75.6647 11.918 75.2327 10.826 75.2327 9.554C75.2327 8.306 75.6527 7.268 76.4927 6.44C77.3327 5.6 78.3707 5.18 79.6067 5.18C80.9387 5.18 82.0307 5.624 82.8827 6.512C83.7467 7.388 84.1787 8.468 84.1787 9.752C84.1787 11.012 83.7827 12.068 82.9907 12.92C82.1987 13.76 81.1787 14.18 79.9307 14.18ZM80.1467 13.586C80.8547 13.586 81.4367 13.286 81.8927 12.686C82.3607 12.086 82.5947 11.288 82.5947 10.292C82.5947 9.02 82.2947 7.952 81.6947 7.088C81.0947 6.212 80.3387 5.774 79.4267 5.774C78.6587 5.774 78.0347 6.074 77.5547 6.674C77.0747 7.262 76.8347 8.054 76.8347 9.05C76.8347 10.25 77.1467 11.306 77.7707 12.218C78.3947 13.13 79.1867 13.586 80.1467 13.586ZM94.0684 12.704C94.0804 12.896 94.1404 13.052 94.2484 13.172C94.3564 13.292 94.4584 13.394 94.5544 13.478C94.6624 13.55 94.7164 13.628 94.7164 13.712V13.784C94.7164 13.94 94.5904 14.018 94.3384 14.018H92.1964C91.9444 14.018 91.8184 13.94 91.8184 13.784V13.712C91.8184 13.628 91.9264 13.502 92.1424 13.334C92.3704 13.166 92.4784 12.962 92.4664 12.722L92.2864 9.122C92.2384 8.054 92.0164 7.25 91.6204 6.71C91.2364 6.158 90.7204 5.882 90.0724 5.882C89.4124 5.882 88.8724 6.116 88.4524 6.584C88.0324 7.052 87.8224 7.646 87.8224 8.366V12.74C87.8224 12.884 87.8584 13.01 87.9304 13.118C88.0144 13.214 88.0984 13.286 88.1824 13.334C88.2664 13.382 88.3444 13.442 88.4164 13.514C88.5004 13.574 88.5424 13.64 88.5424 13.712V13.784C88.5424 13.94 88.4164 14.018 88.1644 14.018H85.9144C85.6744 14.018 85.5544 13.94 85.5544 13.784V13.712C85.5544 13.616 85.6684 13.49 85.8964 13.334C86.1364 13.178 86.2564 12.98 86.2564 12.74V7.286C86.2564 7.058 86.1904 6.884 86.0584 6.764C85.9384 6.632 85.8124 6.53 85.6804 6.458C85.5604 6.386 85.5004 6.308 85.5004 6.224V6.17C85.5004 6.062 85.5964 5.972 85.7884 5.9L87.1384 5.252C87.3064 5.168 87.4324 5.156 87.5164 5.216C87.6004 5.276 87.6424 5.378 87.6424 5.522V6.836C87.9064 6.332 88.2844 5.93 88.7764 5.63C89.2804 5.33 89.8384 5.18 90.4504 5.18C91.3864 5.18 92.1664 5.51 92.7904 6.17C93.4264 6.83 93.7864 7.826 93.8704 9.158L94.0684 12.704ZM99.3643 14.162C98.2603 14.162 97.3723 13.94 96.7003 13.496C96.0403 13.052 95.7103 12.59 95.7103 12.11C95.7103 11.666 95.9443 11.444 96.4123 11.444C96.6163 11.444 96.7783 11.522 96.8983 11.678C97.0303 11.822 97.1443 12.002 97.2403 12.218C97.3363 12.434 97.4503 12.65 97.5823 12.866C97.7263 13.082 97.9483 13.268 98.2483 13.424C98.5483 13.568 98.9203 13.64 99.3643 13.64C99.9643 13.64 100.456 13.502 100.84 13.226C101.224 12.938 101.416 12.548 101.416 12.056C101.416 11.576 101.224 11.204 100.84 10.94C100.468 10.676 100.012 10.49 99.4723 10.382C98.9323 10.262 98.3923 10.13 97.8523 9.986C97.3123 9.842 96.8503 9.578 96.4663 9.194C96.0943 8.81 95.9083 8.294 95.9083 7.646C95.9083 6.95 96.2263 6.368 96.8623 5.9C97.4983 5.42 98.3083 5.18 99.2923 5.18C100.336 5.18 101.182 5.402 101.83 5.846C102.478 6.29 102.802 6.776 102.802 7.304C102.802 7.484 102.736 7.634 102.604 7.754C102.484 7.874 102.334 7.934 102.154 7.934C101.938 7.934 101.752 7.82 101.596 7.592C101.44 7.364 101.308 7.112 101.2 6.836C101.104 6.56 100.9 6.308 100.588 6.08C100.276 5.852 99.8683 5.738 99.3643 5.738C98.8363 5.738 98.3923 5.888 98.0323 6.188C97.6843 6.488 97.5103 6.86 97.5103 7.304C97.5103 7.772 97.6963 8.138 98.0683 8.402C98.4523 8.654 98.9143 8.84 99.4543 8.96C99.9943 9.08 100.528 9.212 101.056 9.356C101.596 9.5 102.052 9.77 102.424 10.166C102.808 10.55 103 11.072 103 11.732C103 12.428 102.664 13.01 101.992 13.478C101.332 13.934 100.456 14.162 99.3643 14.162ZM114.6 7.214C115.068 7.418 115.458 7.61 115.77 7.79C116.094 7.958 116.412 8.18 116.724 8.456C117.048 8.732 117.288 9.056 117.444 9.428C117.6 9.788 117.678 10.202 117.678 10.67C117.678 11.762 117.246 12.62 116.382 13.244C115.518 13.868 114.414 14.18 113.07 14.18C111.582 14.18 110.412 13.862 109.56 13.226C108.708 12.59 108.282 11.822 108.282 10.922C108.282 9.41 109.38 8.24 111.576 7.412C110.724 7.016 110.064 6.584 109.596 6.116C109.128 5.636 108.894 5.012 108.894 4.244C108.894 3.296 109.272 2.528 110.028 1.94C110.796 1.352 111.816 1.058 113.088 1.058C114.336 1.058 115.32 1.358 116.04 1.958C116.76 2.558 117.12 3.29 117.12 4.154C117.12 5.498 116.28 6.518 114.6 7.214ZM110.406 3.848C110.406 4.58 110.664 5.156 111.18 5.576C111.708 5.984 112.482 6.386 113.502 6.782C114.078 6.506 114.594 6.128 115.05 5.648C115.506 5.168 115.734 4.598 115.734 3.938C115.734 3.338 115.476 2.822 114.96 2.39C114.456 1.958 113.808 1.742 113.016 1.742C112.248 1.742 111.618 1.946 111.126 2.354C110.646 2.75 110.406 3.248 110.406 3.848ZM113.232 13.442C114.084 13.442 114.786 13.226 115.338 12.794C115.89 12.35 116.166 11.786 116.166 11.102C116.166 10.67 116.082 10.292 115.914 9.968C115.758 9.644 115.464 9.344 115.032 9.068C114.612 8.78 114.276 8.576 114.024 8.456C113.784 8.336 113.34 8.144 112.692 7.88C112.56 7.82 112.464 7.778 112.404 7.754C111.684 8.054 111.06 8.486 110.532 9.05C110.016 9.602 109.758 10.232 109.758 10.94C109.758 11.684 110.076 12.29 110.712 12.758C111.36 13.214 112.2 13.442 113.232 13.442ZM124.421 14.18C122.885 14.18 121.625 13.58 120.641 12.38C119.657 11.168 119.165 9.554 119.165 7.538C119.165 5.522 119.615 3.938 120.515 2.786C121.427 1.622 122.687 1.04 124.295 1.04C125.783 1.04 127.013 1.652 127.985 2.876C128.957 4.1 129.443 5.684 129.443 7.628C129.443 9.644 128.975 11.24 128.039 12.416C127.103 13.592 125.897 14.18 124.421 14.18ZM124.655 13.46C125.591 13.46 126.353 13.004 126.941 12.092C127.541 11.168 127.841 9.92 127.841 8.348C127.841 6.512 127.475 4.958 126.743 3.686C126.023 2.414 125.111 1.778 124.007 1.778C123.047 1.778 122.267 2.24 121.667 3.164C121.067 4.088 120.767 5.348 120.767 6.944C120.767 8.816 121.127 10.37 121.847 11.606C122.579 12.842 123.515 13.46 124.655 13.46ZM139.79 5.18C140.93 5.18 141.902 5.588 142.706 6.404C143.522 7.208 143.93 8.258 143.93 9.554C143.93 10.874 143.528 11.978 142.724 12.866C141.932 13.742 140.96 14.18 139.808 14.18C138.704 14.18 137.816 13.766 137.144 12.938V16.808C137.144 17 137.204 17.156 137.324 17.276C137.444 17.396 137.558 17.492 137.666 17.564C137.786 17.648 137.846 17.732 137.846 17.816V17.87C137.846 18.026 137.726 18.104 137.486 18.104H135.272C135.02 18.104 134.894 18.026 134.894 17.87V17.816C134.894 17.744 134.93 17.672 135.002 17.6C135.074 17.54 135.146 17.486 135.218 17.438C135.302 17.39 135.38 17.312 135.452 17.204C135.524 17.096 135.56 16.964 135.56 16.808V7.268C135.56 7.04 135.44 6.842 135.2 6.674C134.96 6.494 134.84 6.356 134.84 6.26V6.206C134.84 6.062 134.936 5.954 135.128 5.882L136.424 5.252C136.76 5.096 136.928 5.18 136.928 5.504L136.91 6.692C137.186 6.224 137.576 5.858 138.08 5.594C138.596 5.318 139.166 5.18 139.79 5.18ZM139.592 13.604C140.42 13.604 141.08 13.28 141.572 12.632C142.076 11.972 142.328 11.09 142.328 9.986C142.328 8.738 142.058 7.724 141.518 6.944C140.978 6.152 140.27 5.756 139.394 5.756C138.842 5.756 138.344 5.954 137.9 6.35C137.468 6.734 137.216 7.202 137.144 7.754V10.832C137.144 11.552 137.39 12.194 137.882 12.758C138.386 13.322 138.956 13.604 139.592 13.604ZM152.044 12.668C152.164 12.824 152.314 12.974 152.494 13.118C152.674 13.25 152.806 13.364 152.89 13.46C152.986 13.544 153.034 13.634 153.034 13.73V13.784C153.034 13.928 152.944 14 152.764 14H150.244C150.064 14 149.974 13.922 149.974 13.766V13.73C149.974 13.658 150.04 13.574 150.172 13.478C150.304 13.37 150.388 13.274 150.424 13.19C150.472 13.094 150.412 12.914 150.244 12.65L148.39 10.31L146.392 12.686C146.248 12.854 146.17 13.004 146.158 13.136C146.158 13.256 146.2 13.34 146.284 13.388C146.368 13.436 146.452 13.49 146.536 13.55C146.62 13.61 146.662 13.67 146.662 13.73V13.766C146.662 13.922 146.566 14 146.374 14H144.43C144.25 14 144.16 13.928 144.16 13.784V13.73C144.16 13.646 144.208 13.568 144.304 13.496C144.412 13.424 144.574 13.316 144.79 13.172C145.006 13.016 145.204 12.836 145.384 12.632L147.904 9.698L145.564 6.728C145.396 6.512 145.216 6.338 145.024 6.206C144.844 6.062 144.712 5.96 144.628 5.9C144.544 5.828 144.502 5.738 144.502 5.63V5.576C144.502 5.432 144.586 5.36 144.754 5.36H147.22C147.4 5.36 147.49 5.432 147.49 5.576V5.63C147.49 5.714 147.436 5.822 147.328 5.954C147.232 6.074 147.172 6.182 147.148 6.278C147.124 6.362 147.184 6.518 147.328 6.746L149.128 8.996L151.108 6.746C151.264 6.506 151.324 6.338 151.288 6.242C151.252 6.146 151.168 6.038 151.036 5.918C150.904 5.798 150.838 5.702 150.838 5.63V5.576C150.838 5.432 150.928 5.36 151.108 5.36H152.71C152.89 5.36 152.98 5.432 152.98 5.576V5.63C152.98 5.726 152.944 5.816 152.872 5.9C152.812 5.972 152.692 6.086 152.512 6.242C152.344 6.386 152.182 6.548 152.026 6.728L149.578 9.572L152.044 12.668Z" fill="#929699"/>
</svg>
