<svg width="42" height="14" viewBox="0 0 42 14" fill="none" xmlns="http://www.w3.org/2000/svg">
<path d="M0.08 12.784V12.748C0.08 12.664 0.188 12.538 0.404 12.37C0.62 12.202 0.728 11.998 0.728 11.758V1.48C0.728 1.24 0.62 1.036 0.404 0.868C0.188 0.688 0.08 0.556 0.08 0.471999V0.436C0.08 0.291999 0.2 0.219999 0.44 0.219999H2.69C2.93 0.219999 3.05 0.291999 3.05 0.436V0.471999C3.05 0.556 2.99 0.64 2.87 0.723999C2.762 0.808 2.648 0.91 2.528 1.03C2.42 1.15 2.366 1.3 2.366 1.48V11.758C2.366 11.998 2.48 12.202 2.708 12.37C2.936 12.538 3.05 12.664 3.05 12.748V12.784C3.05 12.928 2.93 13 2.69 13H0.44C0.2 13 0.08 12.928 0.08 12.784ZM8.83841 13.18C7.57841 13.18 6.51041 12.748 5.63441 11.884C4.77041 11.008 4.33841 9.922 4.33841 8.626C4.33841 7.306 4.75841 6.238 5.59841 5.422C6.45041 4.606 7.50641 4.192 8.76641 4.18C9.70241 4.168 10.5184 4.408 11.2144 4.9C11.9224 5.38 12.2764 5.884 12.2764 6.412C12.2764 6.844 12.0364 7.054 11.5564 7.042C11.3284 7.03 11.1124 6.91 10.9084 6.682C10.7164 6.442 10.5424 6.184 10.3864 5.908C10.2424 5.62 10.0024 5.356 9.66641 5.116C9.34241 4.876 8.94641 4.756 8.47841 4.756C7.73441 4.756 7.12241 5.062 6.64241 5.674C6.16241 6.274 5.92241 7.024 5.92241 7.924C5.92241 9.172 6.24041 10.174 6.87641 10.93C7.51241 11.674 8.33441 12.046 9.34241 12.046C9.93041 12.046 10.4344 11.89 10.8544 11.578C11.2864 11.254 11.6164 10.846 11.8444 10.354C11.9164 10.21 12.0304 10.156 12.1864 10.192C12.3424 10.228 12.4024 10.33 12.3664 10.498C12.2224 11.23 11.8384 11.86 11.2144 12.388C10.6024 12.916 9.81041 13.18 8.83841 13.18ZM18.1436 13.18C16.7516 13.18 15.6176 12.73 14.7416 11.83C13.8776 10.918 13.4456 9.826 13.4456 8.554C13.4456 7.306 13.8656 6.268 14.7056 5.44C15.5456 4.6 16.5836 4.18 17.8196 4.18C19.1516 4.18 20.2436 4.624 21.0956 5.512C21.9596 6.388 22.3916 7.468 22.3916 8.752C22.3916 10.012 21.9956 11.068 21.2036 11.92C20.4116 12.76 19.3916 13.18 18.1436 13.18ZM18.3596 12.586C19.0676 12.586 19.6496 12.286 20.1056 11.686C20.5736 11.086 20.8076 10.288 20.8076 9.292C20.8076 8.02 20.5076 6.952 19.9076 6.088C19.3076 5.212 18.5516 4.774 17.6396 4.774C16.8716 4.774 16.2476 5.074 15.7676 5.674C15.2876 6.262 15.0476 7.054 15.0476 8.05C15.0476 9.25 15.3596 10.306 15.9836 11.218C16.6076 12.13 17.3996 12.586 18.3596 12.586ZM32.2813 11.704C32.2933 11.896 32.3533 12.052 32.4613 12.172C32.5693 12.292 32.6713 12.394 32.7673 12.478C32.8753 12.55 32.9293 12.628 32.9293 12.712V12.784C32.9293 12.94 32.8033 13.018 32.5513 13.018H30.4093C30.1573 13.018 30.0313 12.94 30.0313 12.784V12.712C30.0313 12.628 30.1393 12.502 30.3553 12.334C30.5833 12.166 30.6913 11.962 30.6793 11.722L30.4993 8.122C30.4513 7.054 30.2293 6.25 29.8333 5.71C29.4493 5.158 28.9333 4.882 28.2853 4.882C27.6253 4.882 27.0853 5.116 26.6653 5.584C26.2453 6.052 26.0353 6.646 26.0353 7.366V11.74C26.0353 11.884 26.0713 12.01 26.1433 12.118C26.2273 12.214 26.3113 12.286 26.3953 12.334C26.4793 12.382 26.5573 12.442 26.6293 12.514C26.7133 12.574 26.7553 12.64 26.7553 12.712V12.784C26.7553 12.94 26.6293 13.018 26.3773 13.018H24.1273C23.8873 13.018 23.7673 12.94 23.7673 12.784V12.712C23.7673 12.616 23.8813 12.49 24.1093 12.334C24.3493 12.178 24.4693 11.98 24.4693 11.74V6.286C24.4693 6.058 24.4033 5.884 24.2713 5.764C24.1513 5.632 24.0253 5.53 23.8933 5.458C23.7733 5.386 23.7133 5.308 23.7133 5.224V5.17C23.7133 5.062 23.8093 4.972 24.0013 4.9L25.3513 4.252C25.5193 4.168 25.6453 4.156 25.7293 4.216C25.8133 4.276 25.8553 4.378 25.8553 4.522V5.836C26.1193 5.332 26.4973 4.93 26.9893 4.63C27.4933 4.33 28.0513 4.18 28.6633 4.18C29.5993 4.18 30.3793 4.51 31.0033 5.17C31.6393 5.83 31.9993 6.826 32.0833 8.158L32.2813 11.704ZM37.5772 13.162C36.4732 13.162 35.5852 12.94 34.9132 12.496C34.2532 12.052 33.9232 11.59 33.9232 11.11C33.9232 10.666 34.1572 10.444 34.6252 10.444C34.8292 10.444 34.9912 10.522 35.1112 10.678C35.2432 10.822 35.3572 11.002 35.4532 11.218C35.5492 11.434 35.6632 11.65 35.7952 11.866C35.9392 12.082 36.1612 12.268 36.4612 12.424C36.7612 12.568 37.1332 12.64 37.5772 12.64C38.1772 12.64 38.6692 12.502 39.0532 12.226C39.4372 11.938 39.6292 11.548 39.6292 11.056C39.6292 10.576 39.4372 10.204 39.0532 9.94C38.6812 9.676 38.2252 9.49 37.6852 9.382C37.1452 9.262 36.6052 9.13 36.0652 8.986C35.5252 8.842 35.0632 8.578 34.6792 8.194C34.3072 7.81 34.1212 7.294 34.1212 6.646C34.1212 5.95 34.4392 5.368 35.0752 4.9C35.7112 4.42 36.5212 4.18 37.5052 4.18C38.5492 4.18 39.3952 4.402 40.0432 4.846C40.6912 5.29 41.0152 5.776 41.0152 6.304C41.0152 6.484 40.9492 6.634 40.8172 6.754C40.6972 6.874 40.5472 6.934 40.3672 6.934C40.1512 6.934 39.9652 6.82 39.8092 6.592C39.6532 6.364 39.5212 6.112 39.4132 5.836C39.3172 5.56 39.1132 5.308 38.8012 5.08C38.4892 4.852 38.0812 4.738 37.5772 4.738C37.0492 4.738 36.6052 4.888 36.2452 5.188C35.8972 5.488 35.7232 5.86 35.7232 6.304C35.7232 6.772 35.9092 7.138 36.2812 7.402C36.6652 7.654 37.1272 7.84 37.6672 7.96C38.2072 8.08 38.7412 8.212 39.2692 8.356C39.8092 8.5 40.2652 8.77 40.6372 9.166C41.0212 9.55 41.2132 10.072 41.2132 10.732C41.2132 11.428 40.8772 12.01 40.2052 12.478C39.5452 12.934 38.6692 13.162 37.5772 13.162Z" fill="#929699"/>
</svg>
